<?xml version="1.0" encoding="UTF-8"?>
<svg version="1.1" xmlns="http://www.w3.org/2000/svg" width="3464" height="1065">
<path d="M0 0 C1143.12 0 2286.24 0 3464 0 C3464 351.45 3464 702.9 3464 1065 C2320.88 1065 1177.76 1065 0 1065 C0 713.55 0 362.1 0 0 Z " fill="#FEFEFE" transform="translate(0,0)"/>
<path d="M0 0 C1.44862427 -0.00108765 1.44862427 -0.00108765 2.92651367 -0.00219727 C3.96396729 0.01528564 5.0014209 0.03276855 6.0703125 0.05078125 C7.67386597 0.06443726 7.67386597 0.06443726 9.30981445 0.07836914 C17.98480768 0.21108096 26.55723361 0.8662731 35.17578125 1.828125 C46.46974274 3.06610284 57.68671788 3.51650018 69.04125977 3.53686523 C70.58706339 3.5431887 72.13286525 3.5499564 73.67866516 3.55712891 C76.98238815 3.57167893 80.2861047 3.58345152 83.58984566 3.59307671 C88.83458236 3.60869599 94.07926173 3.63264514 99.32395935 3.65797424 C114.22968903 3.72873247 129.13545088 3.78875647 144.04125977 3.84008789 C152.2932075 3.86857846 160.54509738 3.90405506 168.79698414 3.94674164 C173.14689523 3.96890415 177.49675389 3.98751348 181.84671211 3.99719048 C225.57237674 4.09840893 268.57249658 6.98523968 302.1953125 38.36328125 C302.86691406 38.95496094 303.53851562 39.54664063 304.23046875 40.15625 C323.85122556 58.25740377 332.13168659 86.54595647 333.51953125 112.37890625 C333.87117312 123.46399761 332.81792928 134.38036557 331.4453125 145.36328125 C331.28861084 146.63848633 331.13190918 147.91369141 330.97045898 149.22753906 C329.79799364 157.88142322 327.79859827 166.03432798 325.1953125 174.36328125 C324.95151855 175.17571289 324.70772461 175.98814453 324.45654297 176.82519531 C316.39602349 203.44252489 303.55243983 227.44857043 285.1953125 248.36328125 C284.70643555 248.92515137 284.21755859 249.48702148 283.71386719 250.06591797 C261.79297031 275.11730421 233.98161037 291.41114719 203.1953125 303.36328125 C204.11828125 303.57082031 205.04125 303.77835937 205.9921875 303.9921875 C233.8878763 310.4819231 258.21699677 321.54474233 279.1953125 341.36328125 C279.95714844 342.06066406 280.71898438 342.75804687 281.50390625 343.4765625 C299.93092876 360.94550759 311.58161377 386.62814184 316.1953125 411.36328125 C316.37191406 412.30606934 316.54851563 413.24885742 316.73046875 414.22021484 C318.50667459 424.96150249 318.59219138 435.62489737 318.5703125 446.48828125 C318.57010101 447.4576059 318.56988953 448.42693054 318.56967163 449.42562866 C318.53425033 465.73974047 317.31535046 481.31999364 314.1953125 497.36328125 C313.86386394 499.25768677 313.53311787 501.15221536 313.203125 503.046875 C306.06701496 541.52596576 288.93325947 580.33961055 265.1953125 611.36328125 C264.74800781 611.9572168 264.30070312 612.55115234 263.83984375 613.16308594 C258.62744605 620.07279801 253.30714203 626.54100044 247.046875 632.546875 C245.06521305 634.41299914 245.06521305 634.41299914 243.1328125 636.98828125 C240.8014599 639.84606831 238.17813117 642.10490546 235.375 644.4921875 C233.96278769 645.70446294 232.57041105 646.94039612 231.203125 648.203125 C197.35408891 679.43365075 152.16714505 697.65218466 106.98787308 703.96401119 C105.0104903 704.24673012 103.03563876 704.54742212 101.0628624 704.86067295 C91.00229434 706.36510606 81.16872079 706.65142013 71.00878906 706.63452148 C69.2340013 706.63892125 67.4592156 706.64422788 65.68443298 706.65036011 C61.88695266 706.66177989 58.08952753 706.66731372 54.29203033 706.6682415 C48.23848071 706.67020741 42.18504181 706.68840546 36.13153076 706.70899963 C21.07427029 706.75788565 6.01697951 706.78879729 -9.04034424 706.81030273 C-20.71354055 706.8270131 -32.38664144 706.85038463 -44.05977464 706.89332348 C-49.0682597 706.91118007 -54.07661678 706.92376194 -59.08513641 706.92202568 C-81.68965909 706.91624201 -104.10354342 707.50429443 -126.64255905 709.3185873 C-152.46036092 711.39652373 -152.46036092 711.39652373 -155.62147903 708.96690464 C-157.09318967 706.97226915 -157.20765386 705.82432098 -157.1796875 703.36328125 C-157.18742187 702.68265625 -157.19515625 702.00203125 -157.203125 701.30078125 C-156.67637134 698.73931247 -155.85041649 697.9771897 -153.8046875 696.36328125 C-151.43554688 695.88671875 -151.43554688 695.88671875 -148.6484375 695.73828125 C-147.62492187 695.67125 -146.60140625 695.60421875 -145.546875 695.53515625 C-144.47695312 695.4784375 -143.40703125 695.42171875 -142.3046875 695.36328125 C-134.08352991 694.91448357 -126.66701644 693.84980844 -118.8046875 691.36328125 C-117.65097656 691.01007812 -116.49726562 690.656875 -115.30859375 690.29296875 C-99.2497529 684.53481865 -89.44502982 674.44915943 -82.1640625 659.35546875 C-81.49117187 657.87433594 -81.49117187 657.87433594 -80.8046875 656.36328125 C-80.30839844 655.30367187 -79.81210938 654.2440625 -79.30078125 653.15234375 C-77.34967467 648.53618869 -76.25662481 643.73160491 -75.1171875 638.86328125 C-74.86372559 637.79505127 -74.61026367 636.72682129 -74.34912109 635.6262207 C-71.63234923 623.96626613 -69.28128372 612.23175 -66.9074707 600.49829102 C-64.65887714 589.40422167 -62.28846983 578.34446731 -59.8046875 567.30078125 C-57.033554 554.96361279 -54.3406918 542.61303034 -51.7421875 530.23828125 C-51.57557617 529.44511505 -51.40896484 528.65194885 -51.23730469 527.83474731 C-49.47866002 519.45290597 -47.73922976 511.06729815 -46.02734375 502.67578125 C-45.45329837 499.86324582 -44.87911587 497.05073849 -44.3046875 494.23828125 C-44.16327332 493.54550079 -44.02185913 492.85272034 -43.87615967 492.13894653 C-41.50442539 480.54138503 -38.96178991 468.9869455 -36.36383057 457.4382019 C-33.47669976 444.58772502 -30.79043118 431.70248354 -28.17120361 418.79498291 C-25.90345061 407.62515438 -23.53601887 396.48662789 -21.02294922 385.36889648 C-19.00439138 376.38911196 -17.14306672 367.38122263 -15.3046875 358.36328125 C-13.28216359 348.44798778 -11.21618576 338.54833513 -8.9921875 328.67578125 C-6.19333757 316.23655529 -3.5199819 303.77186208 -0.8671875 291.30078125 C-0.65061493 290.28283478 -0.43404236 289.26488831 -0.21090698 288.21609497 C2.70524068 274.49713426 5.56685675 260.76803817 8.37130737 247.02584839 C10.44672112 236.86490284 12.64511919 226.73670179 14.92675781 216.62011719 C16.95924503 207.5560318 18.84019621 198.46488233 20.6953125 189.36328125 C22.99306046 178.09003365 25.39405596 166.84853084 27.92578125 155.625 C30.12102875 145.83349922 32.14024331 136.00940267 34.14004517 126.17657471 C35.87973781 117.62724851 37.67928072 109.09940055 39.61865234 100.5925293 C49.0053016 66.47061074 49.0053016 66.47061074 45.1953125 32.42578125 C43.83195233 30.24723552 43.83195233 30.24723552 42.1953125 28.36328125 C41.67195313 27.71617188 41.14859375 27.0690625 40.609375 26.40234375 C31.35371312 16.82333997 17.24043768 15.73868921 4.69677734 15.1706543 C0.45185904 14.92942259 -2.20365398 14.71727342 -5.921875 12.52734375 C-7.8046875 10.36328125 -7.8046875 10.36328125 -8.3046875 6.80078125 C-7.8046875 3.36328125 -7.8046875 3.36328125 -6.57373047 1.67114258 C-4.25732832 -0.04138382 -2.86569798 -0.00997843 0 0 Z " fill="#FF6E40" transform="translate(1891.8046875,26.63671875)"/>
<path d="M0 0 C0.93062256 -0.0007251 1.86124512 -0.0014502 2.82006836 -0.00219727 C4.31679077 0.0240271 4.31679077 0.0240271 5.84375 0.05078125 C7.38784546 0.06443726 7.38784546 0.06443726 8.96313477 0.07836914 C16.1405204 0.19294605 23.22706674 0.65885698 30.34765625 1.56323242 C43.39518787 3.22013455 56.50209244 3.51330306 69.63793945 3.53686523 C71.19566016 3.54319371 72.75337912 3.5499619 74.31109619 3.55712891 C77.63113849 3.57164058 80.95117457 3.5834276 84.27123451 3.59307671 C89.54114011 3.60873389 94.81098933 3.6326796 100.08085632 3.65797424 C115.05476289 3.72864212 130.02870026 3.78882655 145.00268555 3.84008789 C153.29932595 3.86856276 161.59590862 3.90402593 169.89248818 3.94674164 C174.26412042 3.96891102 178.63570034 3.98751795 183.00737953 3.99719048 C227.29020465 4.09904668 227.29020465 4.09904668 246.34375 9.36328125 C247.08206055 9.55905762 247.82037109 9.75483398 248.58105469 9.95654297 C277.38485384 17.65559924 302.75835648 32.74087752 318.46484375 58.82421875 C322.26981209 65.4237111 325.24268664 72.2250713 327.71875 79.42578125 C327.95746826 80.10850098 328.19618652 80.7912207 328.44213867 81.49462891 C332.35379575 93.61298499 332.71945417 106.24428458 332.65625 118.86328125 C332.65475952 119.60285065 332.65326904 120.34242004 332.6517334 121.10440063 C332.58709635 139.02791749 330.70271325 156.19643288 325.34375 173.36328125 C325.02881592 174.39799561 325.02881592 174.39799561 324.70751953 175.45361328 C314.59669957 208.45879537 297.78361212 236.06571818 273.34375 260.36328125 C272.4619104 261.27944214 272.4619104 261.27944214 271.56225586 262.21411133 C266.85119239 267.05786442 261.92419227 271.25708215 256.46875 275.23828125 C255.64576416 275.83979004 254.82277832 276.44129883 253.97485352 277.06103516 C240.39110509 286.80169692 225.68816116 293.86514125 210.34375 300.36328125 C209.00364513 300.93689033 207.66378429 301.51107002 206.32421875 302.0859375 C205.34066406 302.50746094 204.35710937 302.92898438 203.34375 303.36328125 C203.90545898 303.50314453 204.46716797 303.64300781 205.04589844 303.78710938 C243.76784208 313.55792031 277.79255689 331.17469698 299.16650391 366.32910156 C307.80320327 381.25257296 313.25691489 397.43029558 316.34375 414.36328125 C316.59970947 415.57504028 316.59970947 415.57504028 316.86083984 416.8112793 C318.67471294 426.14103632 318.65743017 435.33721341 318.59375 444.80078125 C318.58810028 446.0695813 318.58810028 446.0695813 318.58233643 447.36401367 C318.43304093 475.95579041 314.94503124 504.27696878 305.34375 531.36328125 C304.82444532 532.92759813 304.3076737 534.4927574 303.79296875 536.05859375 C291.52302194 572.88640423 272.25202354 606.32800534 245.34375 634.36328125 C244.80878906 634.92547363 244.27382813 635.48766602 243.72265625 636.06689453 C235.50709734 644.65955328 226.95903948 652.36918106 217.34375 659.36328125 C216.71210937 659.82331543 216.08046875 660.28334961 215.4296875 660.75732422 C194.1193177 676.12986937 171.1787355 686.9435424 146.34375 695.36328125 C144.5803125 695.96462891 144.5803125 695.96462891 142.78125 696.578125 C135.12153586 698.96221103 127.27488235 700.4664103 119.40625 701.98828125 C118.36573486 702.19477295 117.32521973 702.40126465 116.25317383 702.61401367 C92.26827296 707.04912082 67.96896891 706.6744498 43.68002558 706.70213509 C38.66294605 706.71045225 33.64592014 706.73138897 28.62887573 706.75134277 C15.90885924 706.79990491 3.18882004 706.83247965 -9.53125 706.86328125 C-23.26666677 706.89655472 -37.00204045 706.93281763 -50.73739159 706.98741198 C-55.704918 707.00670338 -60.67238771 707.02208591 -65.6399498 707.02775574 C-98.81183043 706.54853557 -98.81183043 706.54853557 -131.65625 710.36328125 C-135.36254662 710.59844331 -139.06818212 710.5940176 -142.78125 710.61328125 C-144.28365234 710.64421875 -144.28365234 710.64421875 -145.81640625 710.67578125 C-146.77675781 710.6809375 -147.73710937 710.68609375 -148.7265625 710.69140625 C-149.60070801 710.70075195 -150.47485352 710.71009766 -151.37548828 710.71972656 C-154.12943033 710.28933099 -154.99877518 709.5651554 -156.65625 707.36328125 C-157.0546875 705.171875 -157.0546875 705.171875 -157.03125 702.80078125 C-157.03898437 702.01574219 -157.04671875 701.23070312 -157.0546875 700.421875 C-156.92320312 699.74253906 -156.79171875 699.06320312 -156.65625 698.36328125 C-152.99321625 695.92125875 -151.08975065 696.10365792 -146.71875 695.98828125 C-129.61775469 695.21844877 -113.7434417 691.69420771 -99.62890625 681.6953125 C-97.65625 680.36328125 -97.65625 680.36328125 -95.52734375 679.4375 C-93.15175293 678.07364306 -92.75396108 676.83877784 -91.65625 674.36328125 C-90.60796462 672.93606422 -89.5438036 671.52044523 -88.46875 670.11328125 C-81.7432049 660.50735716 -77.83385566 650.09882865 -75.25 638.73828125 C-75.03922821 637.83196457 -74.82845642 636.92564789 -74.61129761 635.99186707 C-72.20938279 625.5803884 -69.98601768 615.13042481 -67.78125 604.67578125 C-67.3435551 602.61032388 -66.90572758 600.5448946 -66.46777344 598.47949219 C-63.75530257 585.66772328 -61.0984707 572.84516045 -58.47750854 560.0144043 C-56.46260877 550.15908923 -54.34130394 540.33266332 -52.13354492 530.51879883 C-49.58193114 519.12988855 -47.14720215 507.71649228 -44.71875 496.30078125 C-44.50184509 495.28150543 -44.28494019 494.26222961 -44.0614624 493.21206665 C-41.16535113 479.59107007 -38.32828588 465.95931157 -35.55166626 452.31350708 C-33.21675393 440.85664322 -30.69609027 429.44804761 -28.05200195 418.05859375 C-26.6307027 411.89298148 -25.32088404 405.72423952 -24.18359375 399.5 C-22.80385828 391.95384391 -21.16955428 384.48038154 -19.46844482 377.00094604 C-16.31913138 363.13446549 -13.35816991 349.23634273 -10.53125 335.30078125 C-8.36574732 324.63485515 -6.17624059 313.98065046 -3.78125 303.36328125 C-1.0001619 291.02882967 1.65068927 278.66810074 4.28125 266.30078125 C4.49857788 265.27939056 4.71590576 264.25799988 4.93981934 263.20565796 C7.81292872 249.69133843 10.62724245 236.16632879 13.38598633 222.62826538 C15.56977885 211.93014469 17.89245486 201.26738529 20.28125 190.61328125 C23.07080149 178.17149383 25.7857718 165.71683962 28.40625 153.23828125 C28.57177368 152.45022095 28.73729736 151.66216064 28.90783691 150.85021973 C30.70175243 142.29897395 32.47509806 133.74363356 34.2265625 125.18359375 C34.45375221 124.07357498 34.45375221 124.07357498 34.68553162 122.94113159 C35.57818465 118.57908159 35.57818465 118.57908159 36.46939087 114.21673584 C38.23539406 105.57238527 40.09069406 96.95634524 42.09375 88.36328125 C49.38172632 60.11485344 49.38172632 60.11485344 44.59375 32.33203125 C43.975 31.3575 43.975 31.3575 43.34375 30.36328125 C42.725 29.38875 42.725 29.38875 42.09375 28.39453125 C35.4964156 19.54810558 24.79798153 17.17646736 14.39501953 15.60693359 C9.52248753 15.02816819 4.60902265 14.93991734 -0.29296875 14.8671875 C-3.65625 14.36328125 -3.65625 14.36328125 -6.0859375 12.55078125 C-8.35680799 9.38737957 -8.13906671 7.15684113 -7.65625 3.36328125 C-5.4182519 0.30017602 -3.70139865 -0.01334292 0 0 Z " fill="#FF6E40" transform="translate(531.65625,26.63671875)"/>
<path d="M0 0 C1.06109526 0.83512127 2.12341884 1.66868659 3.1875 2.5 C18.16705994 15.81516439 27.67440644 34.6921233 32 54 C32.17950195 54.76836182 32.35900391 55.53672363 32.54394531 56.32836914 C33.86836268 62.34058886 34.31743327 68.03954569 34.25 74.1875 C34.24250732 75.10168701 34.23501465 76.01587402 34.22729492 76.95776367 C33.67375556 112.22657049 16.92109892 140.89482306 -7.859375 165.1796875 C-14.14059196 170.97108479 -21.11115243 175.96609903 -28 181 C-28.55913086 181.41491699 -29.11826172 181.82983398 -29.69433594 182.25732422 C-90.095321 226.93881001 -172.67090329 246.24606424 -245.64941406 258.48999023 C-252.92929452 260.06951561 -257.97302923 263.80130244 -262 270 C-267.36976677 279.34785804 -269.46532078 288.46702178 -271 299 C-271.17273437 299.99765381 -271.34546875 300.99530762 -271.5234375 302.02319336 C-272.24455183 307.11439074 -272.16246923 312.22291926 -272.16796875 317.35546875 C-272.17129715 318.45232498 -272.17462555 319.54918121 -272.17805481 320.67927551 C-272.18310711 323.00159285 -272.18546366 325.32391741 -272.18530273 327.64624023 C-272.18746483 331.13082551 -272.20557094 334.61508105 -272.22460938 338.09960938 C-272.32622297 377.80042927 -266.46628585 418.20741733 -238.25 448.25 C-219.16862156 466.68054073 -194.07377751 471.46077683 -168.578125 471.21484375 C-160.76480238 471.03605681 -153.576575 469.99812796 -146 468 C-144.75089844 467.69449219 -143.50179688 467.38898438 -142.21484375 467.07421875 C-124.95965245 462.5041127 -108.90247069 453.04233813 -95 442 C-94.47035645 441.58314941 -93.94071289 441.16629883 -93.39501953 440.73681641 C-80.26154379 430.29616129 -68.18491002 418.33386771 -58 405 C-57.45907715 404.30310059 -56.9181543 403.60620117 -56.36083984 402.88818359 C-43.31949747 386.06369597 -32.1371921 368.75018691 -22.36279297 349.83105469 C-21.85119629 348.85555664 -21.33959961 347.88005859 -20.8125 346.875 C-20.36519531 346.00617188 -19.91789062 345.13734375 -19.45703125 344.2421875 C-17.87354623 341.80540359 -16.49669553 340.47377755 -14 339 C-9.73117787 339.17786759 -7.18857235 340.17933984 -4 343 C-4.5169425 348.50543768 -6.54623605 352.36605057 -9.25 357.0625 C-9.69037598 357.83835449 -10.13075195 358.61420898 -10.58447266 359.41357422 C-19.09475247 374.27040332 -28.0052589 388.690319 -38.57666016 402.17529297 C-39.95958827 403.94819257 -41.31642272 405.73826554 -42.66796875 407.53515625 C-60.71869972 431.326721 -82.81870469 451.53606415 -109 466 C-109.91072266 466.50974365 -109.91072266 466.50974365 -110.83984375 467.02978516 C-131.02835882 478.18575371 -154.42419348 486.03157678 -177.62109375 486.16796875 C-178.31886429 486.17220352 -179.01663483 486.17643829 -179.73554993 486.18080139 C-181.96959601 486.19060045 -184.20343644 486.19073899 -186.4375 486.1875 C-187.19977905 486.18689575 -187.96205811 486.1862915 -188.74743652 486.18566895 C-204.93578908 486.15071595 -219.44969612 484.90673883 -235 480 C-235.97324219 479.76023437 -236.94648437 479.52046875 -237.94921875 479.2734375 C-254.10808424 475.0911429 -270.4227103 465.89283126 -283 455 C-283.495 454.57364258 -283.99 454.14728516 -284.5 453.70800781 C-309.51663484 431.99044169 -325.45270235 403.85810943 -334 372 C-334.32484375 370.83984375 -334.6496875 369.6796875 -334.984375 368.484375 C-355.15372437 292.78143725 -335.82516335 205.26013205 -303 136 C-302.57332031 135.09830078 -302.14664062 134.19660156 -301.70703125 133.26757812 C-288.068731 104.71107559 -270.72407675 78.87842633 -250 55 C-249.27296875 54.15953125 -248.5459375 53.3190625 -247.796875 52.453125 C-238.04264159 41.39832713 -227.67023435 31.02477967 -216 22 C-214.72351588 20.98362835 -213.44750814 19.96665824 -212.171875 18.94921875 C-188.62549049 0.35298922 -161.21395757 -14.63011525 -132 -22 C-130.7625 -22.34804687 -129.525 -22.69609375 -128.25 -23.0546875 C-85.92411311 -34.77031471 -33.91828037 -29.94348189 0 0 Z " fill="#FF6E41" transform="translate(1792,258)"/>
<path d="M0 0 C11.86581946 12.95725097 13.08593823 30.3023354 12.40966797 46.95654297 C11.36080659 66.53849626 7.73356882 85.44326519 3.60545349 104.55278015 C2.32229671 110.52108387 1.15372541 116.50564819 0.01908875 122.50413513 C-2.10951051 133.74688243 -4.36377165 144.94223034 -6.84375 156.11328125 C-7.46535694 158.93091723 -8.08465241 161.74905729 -8.703125 164.56738281 C-8.86627953 165.31085244 -9.02943405 166.05432207 -9.19753265 166.82032108 C-11.28478303 176.35242668 -13.31308261 185.89711942 -15.34375 195.44140625 C-15.74697633 197.3352688 -16.15021535 199.22912864 -16.5534668 201.12298584 C-18.20021876 208.85890216 -19.84549565 216.59513121 -21.48876953 224.33178711 C-22.70929136 230.07708074 -23.93175095 235.82195896 -25.15625 241.56640625 C-25.45311707 242.95921499 -25.45311707 242.95921499 -25.75598145 244.38016129 C-28.56313276 257.53589162 -31.46636501 270.66637029 -34.45690918 283.7815094 C-36.52881822 292.88736422 -38.46794062 302.01214937 -40.29669189 311.16964722 C-42.81745892 323.78077956 -45.47934806 336.34462183 -48.375 348.875 C-54.93173015 377.45023986 -60.89818126 406.27666998 -61.125 435.6875 C-61.13901855 436.92516113 -61.15303711 438.16282227 -61.16748047 439.43798828 C-61.11480525 449.42061803 -60.16764277 461.72803674 -53.75 469.9375 C-45.06263485 477.14281011 -37.57763752 477.61647723 -26.59765625 476.6640625 C5.07961017 472.51351832 30.93221205 451.31201771 50.125 426.8125 C51.86100345 424.54062206 53.56001004 422.24372205 55.25 419.9375 C55.65879395 419.3894873 56.06758789 418.84147461 56.48876953 418.27685547 C69.01029285 401.47413067 79.55486595 383.49018214 89.25 364.9375 C89.77207031 363.9386377 90.29414063 362.93977539 90.83203125 361.91064453 C122.66493343 300.55872813 144.49576837 233.66504428 163.03515625 167.24609375 C163.8026251 164.49837326 164.5976636 161.76281915 165.43359375 159.03515625 C169.57720545 145.47904288 172.86943182 131.70115652 176.26147461 117.94262695 C178.56864417 108.58890703 180.87981286 99.23815502 183.37841797 89.93334961 C188.34904469 71.34405717 192.45935019 52.5487684 196.40234375 33.71875 C196.58275208 32.85758072 196.7631604 31.99641144 196.94903564 31.10914612 C197.83468903 26.87484893 198.71445145 22.63943587 199.58544922 18.40209961 C199.90720867 16.85009395 200.22898519 15.29809182 200.55078125 13.74609375 C200.76443581 12.6933728 200.76443581 12.6933728 200.98240662 11.61938477 C201.8265506 7.56428313 202.92852885 3.90191346 204.25 -0.0625 C232.3 -0.0625 260.35 -0.0625 289.25 -0.0625 C288.12729039 11.16459606 288.12729039 11.16459606 287.15625 14.90625 C286.93533691 15.78450439 286.71442383 16.66275879 286.48681641 17.56762695 C286.12209229 18.98821411 286.12209229 18.98821411 285.75 20.4375 C282.8813226 31.99313012 280.34599699 43.60412713 277.875 55.25 C277.09698308 58.91029022 276.31828952 62.57043596 275.5390625 66.23046875 C275.34624695 67.13623657 275.1534314 68.04200439 274.95477295 68.97521973 C271.9891266 82.87995112 268.87973644 96.75286557 265.76824951 110.62554932 C265.23554369 113.00199071 264.70383053 115.37865241 264.17236328 117.75537109 C257.40012939 148.03568102 257.40012939 148.03568102 253.99609375 162.66015625 C253.81080612 163.45634872 253.62551849 164.2525412 253.43461609 165.07286072 C253.15676018 166.26668114 253.15676018 166.26668114 252.87329102 167.48461914 C249.40222671 182.39956975 246.05490888 197.3326317 242.875 212.3125 C239.59285576 227.77130516 236.2157972 243.20628059 232.75 258.625 C232.51720337 259.66091278 232.28440674 260.69682556 232.04455566 261.76412964 C229.13698888 274.6886801 226.17843959 287.60058796 223.17663574 300.50354004 C218.27100239 321.59266133 213.71531343 342.75118776 209.25 363.9375 C208.98171387 365.20835449 208.71342773 366.47920898 208.43701172 367.78857422 C207.19732094 373.6701903 205.97377801 379.55478948 204.76757812 385.44335938 C204.2603938 387.88741366 203.73386827 390.32659133 203.203125 392.765625 C199.16842046 411.59808329 195.90843476 430.95480232 195.875 450.25 C195.87338867 451.10770996 195.87177734 451.96541992 195.87011719 452.84912109 C195.97001476 458.42229546 196.86764245 463.54744468 198.25 468.9375 C198.518125 470.071875 198.78625 471.20625 199.0625 472.375 C200.03253802 475.07771081 200.03253802 475.07771081 202.4375 476.3125 C210.22808927 478.04374206 216.26383489 476.36766206 222.921875 472.30859375 C229.68424478 467.68515033 234.55090973 462.60747086 239.25 455.9375 C240.00667969 454.88175781 240.76335938 453.82601563 241.54296875 452.73828125 C261.51876552 424.21120162 274.06358105 391.27110076 286.33407593 358.91233826 C288.1467889 354.1439222 288.1467889 354.1439222 289.25 351.9375 C293.21 351.9375 297.17 351.9375 301.25 351.9375 C299.80581415 359.61277984 297.26803206 366.57057445 294.375 373.8125 C293.8910376 375.03195312 293.4070752 376.25140625 292.90844727 377.5078125 C253.32897751 476.59692474 253.32897751 476.59692474 209.25 496.9375 C191.88216021 504.1346703 167.71109481 507.1267735 149.80078125 500.1953125 C139.51484698 495.12322853 132.19427456 488.59140075 128.07421875 477.72265625 C125.35332011 468.52833999 124.80957659 459.84535469 124.8125 450.3125 C124.8114325 449.57029205 124.81036499 448.82808411 124.80926514 448.06338501 C124.84223372 432.00789865 127.10614134 416.6856739 130.25 400.9375 C130.48525391 399.73319336 130.72050781 398.52888672 130.96289062 397.28808594 C133.17792149 386.01461616 135.62080901 374.7920119 138.08203125 363.5703125 C138.23671875 362.86468674 138.39140625 362.15906097 138.55078125 361.43205261 C139.29605456 358.03561259 140.04557135 354.6402655 140.80224609 351.24633789 C142.22076809 344.84472822 143.55328089 338.4410221 144.734375 331.9921875 C146.08509869 324.63106065 147.66744238 317.33181214 149.32327271 310.03411865 C152.77084064 294.81888372 156.06932474 279.57245581 159.3125 264.3125 C159.52582977 263.30914612 159.73915955 262.30579224 159.95895386 261.27203369 C162.79351045 247.92774732 165.56743806 234.5722097 168.29177856 221.20504761 C170.65379222 209.63439021 173.1821867 198.1049365 175.76382446 186.58148193 C178.38063793 174.90043026 180.91575002 163.20604693 183.37915039 151.49145508 C185.26518066 142.53286215 187.18943051 133.58305563 189.1328125 124.63671875 C189.64152174 122.29174839 190.15022942 119.94677768 190.65893555 117.60180664 C191.42060115 114.09154943 192.18334319 110.58154305 192.94937134 107.07223511 C193.66555881 103.79092392 194.37802719 100.50882419 195.08984375 97.2265625 C195.30822906 96.23126022 195.52661438 95.23595795 195.75161743 94.210495 C196.04846939 92.83713737 196.04846939 92.83713737 196.35131836 91.43603516 C196.52561874 90.63622223 196.69991913 89.8364093 196.87950134 89.01235962 C197.33789256 86.79656559 197.33789256 86.79656559 197.25 83.9375 C197.01047607 84.93317993 197.01047607 84.93317993 196.76611328 85.94897461 C195.15829385 92.62904124 193.54589138 99.30799082 191.93002319 105.9861145 C190.95657489 110.0104581 189.98547302 114.03535203 189.01757812 118.06103516 C187.9389495 122.54698169 186.85589748 127.03184334 185.77044678 131.5161438 C185.34631142 133.27154277 184.92361914 135.02729116 184.50250244 136.78341675 C181.89671724 147.64475715 179.02757038 158.37510127 175.80609131 169.06958008 C174.42365666 173.71320097 173.16258298 178.39192503 171.875 183.0625 C168.75911604 194.27726752 165.42860934 205.41745751 161.99169922 216.53759766 C161.03032774 219.64828944 160.07846561 222.76187734 159.125 225.875 C158.50030444 227.89592747 157.87525701 229.91674617 157.25 231.9375 C156.89752197 233.0819458 156.54504395 234.2263916 156.18188477 235.40551758 C153.03831707 245.5502829 149.74136714 255.63563321 146.3125 265.6875 C146.03642914 266.49688019 145.76035828 267.30626038 145.47592163 268.14016724 C136.56042681 294.18584276 126.59355981 319.85011101 115.25 344.9375 C114.78916016 345.96987793 114.32832031 347.00225586 113.85351562 348.06591797 C106.99207782 363.42170584 99.61969721 378.34671155 91.25 392.9375 C90.76563477 393.78505859 90.28126953 394.63261719 89.78222656 395.50585938 C76.49401835 418.60266483 61.15606354 440.0896986 42.25 458.9375 C41.48042969 459.75347656 40.71085937 460.56945312 39.91796875 461.41015625 C24.42767849 477.58348293 5.87204434 488.55000908 -14.75 496.9375 C-15.54664062 497.26621094 -16.34328125 497.59492187 -17.1640625 497.93359375 C-40.02999735 506.4531409 -70.0952118 506.49860962 -92.45532227 496.60986328 C-99.61043456 493.1817167 -105.25673749 488.59842044 -110.75 482.9375 C-111.39582031 482.30070312 -112.04164063 481.66390625 -112.70703125 481.0078125 C-127.46162964 465.51387693 -130.18248901 443.25804787 -130.125 422.875 C-130.1237915 422.08005127 -130.12258301 421.28510254 -130.12133789 420.46606445 C-130.02505709 396.9899871 -125.22300228 374.8122895 -120.02734375 352.02734375 C-117.47193769 340.81228464 -115.07464683 329.56438309 -112.6875 318.3125 C-112.47407959 317.30823975 -112.26065918 316.30397949 -112.04077148 315.26928711 C-109.20583795 301.92393684 -106.43037514 288.56755638 -103.70721436 275.19900513 C-101.37528371 263.76837777 -98.86674487 252.38233157 -96.30657959 241.00088501 C-93.46520127 228.3534117 -90.820827 215.67263359 -88.25027466 202.96759033 C-86.04038788 192.05559156 -83.71273583 181.17968296 -81.24862671 170.32235718 C-77.07307299 151.92145169 -73.50734392 133.42508936 -70.05622864 114.87605286 C-68.89813271 108.67079208 -67.66579684 102.48298553 -66.41772461 96.29516602 C-62.72814185 77.7420283 -59.63914439 59.37910993 -59.4375 40.4375 C-59.41977539 39.43404541 -59.40205078 38.43059082 -59.38378906 37.39672852 C-59.39110974 30.08032611 -60.13626126 23.28635276 -64.75 17.375 C-69.4334714 15.13083662 -73.65961399 15.14519474 -78.75 15.9375 C-102.82170148 24.44492544 -117.5112119 58.58650502 -127.75 79.9375 C-136.98877522 99.90021618 -144.97881069 120.36832536 -152.75 140.9375 C-156.71 140.9375 -160.67 140.9375 -164.75 140.9375 C-164.18611724 135.81788709 -163.03467594 131.5651276 -161.125 126.73828125 C-160.73100761 125.73564491 -160.73100761 125.73564491 -160.32905579 124.7127533 C-159.47780648 122.55504423 -158.61471786 120.40234328 -157.75 118.25 C-157.15385197 116.75294482 -156.55774219 115.25587441 -155.96166992 113.75878906 C-151.84984596 103.47681772 -147.56217356 93.29619585 -142.84472656 83.27539062 C-141.67656987 80.78068312 -140.53712722 78.27390799 -139.3984375 75.765625 C-129.02087336 53.14764399 -116.28979893 31.72433835 -98.75 13.9375 C-97.87601563 13.050625 -97.00203125 12.16375 -96.1015625 11.25 C-73.38538796 -10.60016202 -26.16057493 -23.47597445 0 0 Z " fill="#FF6E41" transform="translate(2377.75,241.0625)"/>
<path d="M0 0 C34.42698444 -1.50231432 63.65434078 9.45332588 89.37402344 32.04785156 C130.05174258 69.82846571 143.09367841 130.33197126 148.87402344 183.11035156 C148.95719818 183.86265045 149.04037292 184.61494934 149.12606812 185.39004517 C151.11609355 203.65991418 151.79632887 221.89232608 151.75439453 240.2644043 C151.74903244 243.04318712 151.75438511 245.82180792 151.76074219 248.60058594 C151.77018994 267.66448092 150.78793626 286.53300454 148.74902344 305.48535156 C148.56647086 307.21012192 148.3839353 308.93489408 148.20141602 310.65966797 C147.68792021 315.47794607 147.15818913 320.29432821 146.62402344 325.11035156 C146.5030127 326.21636719 146.38200195 327.32238281 146.25732422 328.46191406 C140.88489355 376.54061563 130.64874684 425.10773736 115.62402344 471.11035156 C115.31029785 472.07602051 114.99657227 473.04168945 114.67333984 474.03662109 C106.68994401 498.38048958 96.99694889 521.66475807 84.62402344 544.11035156 C86.41618906 544.11035156 87.47652947 542.47318303 88.72167969 541.29394531 C89.35912109 540.69388672 89.9965625 540.09382812 90.65332031 539.47558594 C91.32427734 538.83943359 91.99523438 538.20328125 92.68652344 537.54785156 C93.9886797 536.31608212 95.29206901 535.0856149 96.59667969 533.85644531 C97.17683838 533.30657959 97.75699707 532.75671387 98.35473633 532.19018555 C100.31028482 530.39789748 102.29944585 528.66529051 104.30908203 526.93457031 C108.96381998 522.87230303 113.32886661 518.54949904 117.69042969 514.17675781 C118.52815414 513.33999008 119.3658786 512.50322235 120.22898865 511.64109802 C121.98909279 509.88167053 123.74795021 508.12099503 125.50561523 506.35913086 C128.17873316 503.68065745 130.85714595 501.00756283 133.53613281 498.33496094 C135.25455247 496.61588041 136.97266186 494.89648967 138.69042969 493.17675781 C139.87820763 491.99201622 139.87820763 491.99201622 141.08998108 490.78334045 C145.25646139 486.59945242 149.27045932 482.34055831 153.11463928 477.85784912 C155.49807886 475.09840923 158.00475702 472.45669506 160.49902344 469.79785156 C165.03304038 464.92929406 169.30895125 459.91702992 173.47558594 454.72753906 C175.63914116 452.09193543 177.88791904 449.56611781 180.18652344 447.04785156 C184.55965669 442.2313938 188.61986952 437.23566858 192.62402344 432.11035156 C193.67600152 430.77693519 194.7280943 429.44360929 195.78027344 428.11035156 C229.72998653 384.94291606 260.26225323 337.82979566 278.66015625 285.82470703 C279.52033808 283.40234089 280.40749486 280.99219663 281.30371094 278.58300781 C289.25831045 256.64492719 292.81058532 233.96726198 292.91918945 210.73706055 C292.9306371 209.04361569 292.95097264 207.35020481 292.98071289 205.65698242 C293.53142447 174.13105205 283.28628784 146.10059779 261.62402344 123.11035156 C260.91560303 122.35431641 260.91560303 122.35431641 260.19287109 121.58300781 C254.67853361 115.75362055 248.84787879 110.49990928 242.58496094 105.49316406 C209.71740187 79.04301758 209.71740187 79.04301758 207.30834961 60.70776367 C207.152151 58.22876476 207.10476761 55.78161278 207.12402344 53.29785156 C207.13046875 52.42201416 207.13691406 51.54617676 207.14355469 50.64379883 C207.560986 35.7796741 215.97572574 23.93826674 226.49902344 13.88769531 C233.04365793 8.41378227 240.60550602 4.87627465 248.62402344 2.11035156 C249.26726563 1.88347656 249.91050781 1.65660156 250.57324219 1.42285156 C262.91010682 -2.30148493 274.52087839 0.54931592 285.62792969 6.29003906 C303.13507821 16.926716 311.28581551 39.36417262 316.27246094 58.27441406 C320.35007852 74.98284143 322.79869029 92.6471769 322.75683594 109.86035156 C322.75779266 110.75794189 322.75874939 111.65553223 322.75973511 112.58032227 C322.76041089 114.46940176 322.75859894 116.35848366 322.75439453 118.24755859 C322.74908868 121.07557673 322.75433393 123.90343235 322.76074219 126.73144531 C322.76741446 141.79768848 322.51393957 156.86689685 320.31152344 171.79785156 C320.18181152 172.70591553 320.05209961 173.61397949 319.91845703 174.54956055 C307.26113183 261.35858353 269.66442649 341.62190374 219.62402344 413.11035156 C219.17397949 413.7582666 218.72393555 414.40618164 218.26025391 415.07373047 C202.98377628 437.04840248 186.16383903 457.91340002 168.62402344 478.11035156 C167.96789063 478.86832031 167.31175781 479.62628906 166.63574219 480.40722656 C162.7829105 484.83576873 158.86176504 489.20184909 154.92480469 493.55566406 C153.45466254 495.18804601 151.99283876 496.82798367 150.54199219 498.47753906 C145.4563795 504.2330562 140.10876971 509.66330624 134.65234375 515.06274414 C130.97915169 518.71138814 127.48086062 522.43950538 124.12402344 526.38378906 C119.68848039 531.48928392 114.70757334 535.95375472 109.59277344 540.36035156 C107.69379272 542.04833442 105.90396355 543.7980489 104.12402344 545.61035156 C101.17802129 548.60269532 98.09419336 551.36359329 94.91308594 554.10253906 C92.68829205 556.05397944 90.51231843 558.05218804 88.34301758 560.06494141 C83.13348749 564.89660824 77.79947998 569.4822025 72.26074219 573.93847656 C69.69982315 576.04791505 67.25278889 578.23922805 64.81152344 580.48535156 C59.31216135 585.4839868 53.49093964 590.02603626 47.61474609 594.56542969 C45.50884271 596.19973881 43.41529827 597.84898492 41.32324219 599.50097656 C31.9914406 606.8504961 22.49095717 613.86660124 12.73291016 620.63818359 C10.6043383 622.12409333 8.48944771 623.62766646 6.37792969 625.13769531 C-55.64788996 669.45304269 -127.1824013 708.04722033 -202.75097656 721.86035156 C-203.9042041 722.07151611 -205.05743164 722.28268066 -206.24560547 722.50024414 C-231.63033666 726.93374152 -261.12537803 728.22694161 -285.37597656 718.11035156 C-286.23191406 717.76359375 -287.08785156 717.41683594 -287.96972656 717.05957031 C-297.81435934 712.63860096 -305.91417354 705.62129677 -310.37207031 695.67675781 C-313.73697912 683.72282108 -312.32935192 670.97417521 -306.37597656 660.11035156 C-300.58485297 650.2744299 -292.86128703 642.69504398 -281.64941406 639.54785156 C-273.26691388 637.93472438 -266.00992455 639.31096731 -258.37597656 643.11035156 C-249.48334193 649.26679092 -245.23299372 660.24088616 -240.87597656 669.79785156 C-234.75764331 683.08471873 -227.59987557 692.15215945 -213.62597656 697.42285156 C-182.08504168 708.35150883 -145.42188402 692.71692245 -117.32519531 679.18066406 C-97.07499947 669.06370965 -78.49320875 655.0342423 -62.03222656 639.57910156 C-59.90048033 637.59783154 -57.73807562 635.71828129 -55.50097656 633.86035156 C-45.4275124 625.11178978 -36.58040484 614.58377008 -28.37597656 604.11035156 C-27.58964844 603.1190625 -26.80332031 602.12777344 -25.99316406 601.10644531 C20.82593595 541.58484677 49.69367368 468.3470235 66.62402344 395.11035156 C66.96361084 393.6461377 66.96361084 393.6461377 67.31005859 392.15234375 C73.22439456 366.23297874 77.24409469 339.85991921 79.93652344 313.42285156 C80.01774445 312.63030975 80.09896545 311.83776794 80.18264771 311.02120972 C86.17368184 251.73462848 83.7221949 189.90104737 68.62402344 132.11035156 C68.35364258 131.07426758 68.08326172 130.03818359 67.8046875 128.97070312 C60.23462633 100.71964255 48.26741376 73.77486529 29.62402344 51.11035156 C28.975625 50.26085937 28.32722656 49.41136719 27.65917969 48.53613281 C17.00893673 35.84169735 -0.83391794 25.82565026 -17.37597656 24.11035156 C-32.15059364 23.03853224 -44.61762967 25.82841158 -56.37597656 35.11035156 C-66.25717546 44.19767636 -72.23550797 56.64963379 -72.80957031 70.09863281 C-72.83281971 72.20657792 -72.83356019 74.31487391 -72.81347656 76.42285156 C-72.80662842 77.525 -72.79978027 78.62714844 -72.79272461 79.76269531 C-72.63305785 87.85726161 -71.81672634 94.69088462 -68.37597656 102.11035156 C-67.79783203 103.35945313 -67.79783203 103.35945313 -67.20800781 104.63378906 C-62.98618671 112.85882564 -58.03597197 118.09197782 -49.98925781 122.62207031 C-45.97782439 124.90660863 -42.18933961 127.5128434 -38.37597656 130.11035156 C-38.9630211 136.33302363 -38.9630211 136.33302363 -40.43847656 139.11035156 C-43.82773403 140.85964574 -46.87786973 140.12798264 -50.37597656 139.11035156 C-64.79330989 133.17765162 -76.0488802 121.40341165 -82.21240234 107.18017578 C-83.8843832 102.89994769 -85.17855148 98.54786803 -86.37597656 94.11035156 C-86.62089844 93.26214844 -86.86582031 92.41394531 -87.11816406 91.54003906 C-91.72038324 72.94203006 -86.99208904 54.25447536 -77.37597656 38.11035156 C-74.91210067 34.5697425 -72.25807306 31.31653923 -69.37597656 28.11035156 C-68.85777344 27.49933594 -68.33957031 26.88832031 -67.80566406 26.25878906 C-52.84034188 9.7894144 -27.54429645 1.3472953 -5.85253906 0.21191406 C-3.90124673 0.15491002 -1.95002272 0.09056826 0 0 Z " fill="#FF6E41" transform="translate(2769.3759765625,229.8896484375)"/>
<path d="M0 0 C34.45853151 -1.08385885 63.86908122 8.13819925 89.74560547 31.08251953 C90.26638672 31.53997559 90.78716797 31.99743164 91.32373047 32.46875 C126.61130185 63.97381625 140.85722829 116.81583199 147.34423828 161.7644043 C147.71152919 164.22985938 147.71152919 164.22985938 148.74560547 167.08251953 C149.35856658 171.29742948 149.78257656 175.53628487 150.24560547 179.77001953 C150.44089844 181.4802832 150.44089844 181.4802832 150.64013672 183.22509766 C157.70807999 247.08646385 151.57106573 312.06480898 140.74560547 375.08251953 C140.50973762 376.47522812 140.27403858 377.86796532 140.03857422 379.26074219 C138.78335986 386.5764149 137.35067328 393.83577367 135.74560547 401.08251953 C135.51871033 402.10810974 135.51871033 402.10810974 135.28723145 403.15441895 C130.85846205 423.10180485 126.01692633 442.79693646 119.66455078 462.23095703 C118.66613945 465.32910909 117.71793269 468.44033289 116.77294922 471.55517578 C109.15803387 496.38130699 99.36169978 520.37964449 86.74560547 543.08251953 C92.97040015 543.08251953 105.89734976 526.9565084 110.67919922 522.17626953 C111.61925374 521.2295949 112.55807775 520.28169661 113.49560547 519.33251953 C117.15508206 515.63104034 120.89736954 512.13993604 124.84716797 508.75439453 C129.56235293 504.60192712 133.91432813 500.10553879 137.99560547 495.33251953 C141.0812495 491.7373196 144.37781624 488.40941491 147.74560547 485.08251953 C151.65109397 481.21954708 155.41691196 477.3151352 158.97998047 473.12939453 C161.13993966 470.62537104 163.3804854 468.20254255 165.62060547 465.77001953 C169.78826586 461.20453701 173.72433974 456.49808317 177.60498047 451.68798828 C179.55157832 449.31868031 181.55794325 447.03810949 183.62060547 444.77001953 C188.98134885 438.79601556 193.84382704 432.43215422 198.74560547 426.08251953 C199.25784668 425.421875 199.77008789 424.76123047 200.29785156 424.08056641 C212.84065084 407.89281806 224.88117334 391.4506959 235.74560547 374.08251953 C236.20708984 373.34501465 236.66857422 372.60750977 237.14404297 371.84765625 C243.22541854 362.08931637 249.10113224 352.22834151 254.61865234 342.13964844 C255.37790314 340.75371967 256.14234116 339.37062153 256.91162109 337.99023438 C269.77966835 314.84986298 279.30718263 290.46165965 286.74560547 265.08251953 C286.97715332 264.30553711 287.20870117 263.52855469 287.44726562 262.72802734 C288.76836464 258.22100168 289.84362562 253.68916747 290.74560547 249.08251953 C290.92462402 248.17453613 291.10364258 247.26655273 291.28808594 246.33105469 C298.15590683 210.23007889 297.11776984 171.75037206 276.77294922 140.00439453 C270.92484525 131.67985687 264.02601697 124.17134126 256.74560547 117.08251953 C256.26091797 116.57591797 255.77623047 116.06931641 255.27685547 115.54736328 C251.09334303 111.21584922 246.58607289 107.44814603 241.90966797 103.66064453 C210.97893769 78.52818935 210.97893769 78.52818935 208.74560547 60.08251953 C207.670839 43.99873358 211.85743205 31.5405333 222.49560547 19.33251953 C232.34827334 8.99384563 245.51132347 0.70297929 260.06982422 -0.10107422 C272.84072774 -0.33179192 284.40174141 2.31719127 294.03857422 11.25439453 C321.34831866 40.5014435 324.13546451 85.11772722 324.12060547 122.89501953 C324.12318863 124.56732132 324.12318863 124.56732132 324.12582397 126.27340698 C324.12190129 148.75102381 322.61068231 170.73632148 318.43310547 192.83251953 C318.11792243 194.5375017 317.80281927 196.24249863 317.48779297 197.94750977 C315.34231259 209.44026934 313.05971253 220.86123995 309.74560547 232.08251953 C309.50406738 232.90220215 309.2625293 233.72188477 309.01367188 234.56640625 C307.05385495 241.11590089 304.93144475 247.6053404 302.74560547 254.08251953 C302.38869629 255.14470703 302.03178711 256.20689453 301.6640625 257.30126953 C295.32183036 276.01372352 287.88937773 294.09889524 279.74560547 312.08251953 C279.07247314 313.56969482 279.07247314 313.56969482 278.38574219 315.08691406 C272.14191371 328.76856207 265.11690118 341.9785357 257.74560547 355.08251953 C257.29072754 355.89430664 256.83584961 356.70609375 256.3671875 357.54248047 C233.11543912 398.88080989 204.9078076 437.31908135 174.18701172 473.38671875 C172.74360931 475.08486799 171.30679124 476.78842146 169.87060547 478.49267578 C162.99900939 486.61647536 155.85161642 494.4375662 148.54443359 502.17041016 C146.77287456 504.05353317 145.01513179 505.94857689 143.26123047 507.84814453 C135.93067185 515.7689009 128.42860426 523.50254045 120.80810547 531.14501953 C119.93210693 532.02561035 119.0561084 532.90620117 118.15356445 533.81347656 C113.77423328 538.18236783 109.333981 542.40495151 104.6418457 546.43579102 C101.42633651 549.228196 98.34440854 552.1620503 95.24560547 555.08251953 C90.15944916 559.84919522 85.04640526 564.55434554 79.74560547 569.08251953 C78.75818359 569.93716797 77.77076172 570.79181641 76.75341797 571.67236328 C63.14303258 583.43442473 49.33357831 594.87514284 34.84082031 605.53759766 C32.66340054 607.14313394 30.49502534 608.7603472 28.32763672 610.37939453 C9.98503447 624.04375603 -8.70381243 637.19777632 -28.25439453 649.08251953 C-29.25422363 649.69063477 -30.25405273 650.29875 -31.28417969 650.92529297 C-93.06609628 688.33896906 -165.49602727 725.71554101 -239.62939453 725.39501953 C-240.30316132 725.39319672 -240.9769281 725.3913739 -241.67111206 725.38949585 C-262.87851983 725.29320832 -285.22173569 721.92021488 -301.46533203 707.03564453 C-309.05982144 698.74471723 -310.73897769 688.78420113 -310.56689453 677.86767578 C-309.63861451 666.62388402 -303.50157381 655.3937576 -295.31689453 647.68408203 C-286.45199775 640.80035536 -278.31821017 638.27187361 -267.25439453 639.08251953 C-259.74465004 640.48244031 -254.24777138 643.94693309 -249.77001953 650.13330078 C-246.15571746 655.91424093 -243.23796507 662.07380101 -240.21777344 668.17749023 C-232.89030322 682.92870656 -225.78639139 691.8562586 -210.25439453 698.08251953 C-180.20915656 706.88955427 -146.95207301 694.07642495 -120.25439453 681.08251953 C-119.51737305 680.72432129 -118.78035156 680.36612305 -118.02099609 679.99707031 C-101.59943057 671.90480133 -86.43808876 661.63096784 -72.25439453 650.08251953 C-71.71427734 649.64536621 -71.17416016 649.20821289 -70.61767578 648.7578125 C-57.44327658 638.01330685 -44.82165238 626.1315071 -34.33642578 612.71923828 C-32.43878364 610.31603294 -30.45711924 608.01303994 -28.43579102 605.71386719 C-11.77791606 586.62281949 1.64016509 564.36787959 13.63574219 542.12597656 C14.63427954 540.28749049 15.65905196 538.46331157 16.68701172 536.64111328 C27.89985521 516.4392679 36.61880533 494.7327581 44.62548828 473.09912109 C45.69848647 470.20941628 46.79362116 467.32905958 47.89404297 464.44970703 C52.65944542 451.84601197 56.45400898 439.08693065 59.93408203 426.07421875 C60.68423275 423.30877142 61.4678552 420.55619829 62.26904297 417.80517578 C68.53311861 396.08174871 73.15396492 373.64675319 76.14013672 351.23876953 C76.54648923 348.23647433 77.09996047 345.296638 77.72607422 342.33251953 C78.93066371 336.45317669 79.60188465 330.5457794 80.24560547 324.58251953 C80.36291016 323.55771484 80.48021484 322.53291016 80.60107422 321.47705078 C81.01875494 317.68199473 81.39085181 313.88385183 81.74560547 310.08251953 C81.87218033 308.75040939 81.87218033 308.75040939 82.00131226 307.39138794 C83.66745115 289.42191659 84.10725472 271.56028009 84.05810547 253.52001953 C84.05647982 252.1471559 84.05497549 250.77429212 84.05358887 249.40142822 C84.02171256 229.13773617 83.38754682 209.19749624 80.74560547 189.08251953 C80.4748493 186.75323451 80.20532022 184.42380652 79.93701172 182.09423828 C75.87198352 148.82347419 67.5064096 115.26340207 52.74560547 85.08251953 C52.39385254 84.35983887 52.04209961 83.6371582 51.6796875 82.89257812 C39.39037966 57.95494895 22.61185084 36.13575755 -4.56689453 26.83251953 C-17.73561388 22.54257625 -31.45563 22.6769742 -44.19970703 28.40673828 C-57.29670419 35.20504334 -64.54053364 44.3389867 -69.52783203 58.28173828 C-73.71007621 74.40361505 -72.66100887 92.02611617 -64.83251953 106.75830078 C-63.4278362 109.00503891 -61.93610419 111.03685778 -60.25439453 113.08251953 C-59.53896484 113.98164063 -59.53896484 113.98164063 -58.80908203 114.89892578 C-54.64711379 119.57329714 -49.59695677 122.40773088 -44.14111328 125.33081055 C-38.18951621 128.52815892 -38.18951621 128.52815892 -36.25439453 131.08251953 C-36.3330653 134.15067966 -37.13711392 135.8836524 -38.69189453 138.52001953 C-41.68773221 140.34674982 -42.50093286 140.23258657 -45.87939453 139.70751953 C-60.68417217 135.98455339 -70.69650187 124.66937327 -78.25439453 112.08251953 C-83.86166766 100.96537007 -86.82002584 89.77538149 -86.69189453 77.33251953 C-86.68359619 76.28410889 -86.67529785 75.23569824 -86.66674805 74.15551758 C-86.26203602 55.45090864 -79.17083997 39.66241 -66.25439453 26.08251953 C-54.61934297 15.02292647 -41.51233807 8.4395653 -26.25439453 4.08251953 C-25.20123047 3.77443359 -24.14806641 3.46634766 -23.06298828 3.14892578 C-15.36160053 1.05037293 -7.95684081 0.29125105 0 0 Z " fill="#FF6E41" transform="translate(934.25439453125,229.91748046875)"/>
<path d="M0 0 C1.90981282 -0.00150581 3.81962499 -0.00494413 5.72943115 -0.01020813 C9.73074123 -0.01453161 13.7312434 0.00221832 17.73242188 0.03442383 C22.79864674 0.07387915 27.86332943 0.06502194 32.92959976 0.04018879 C36.87831655 0.02581542 40.82669002 0.03624602 44.775383 0.0537014 C46.63921025 0.05945623 48.5030742 0.05839348 50.36688995 0.0496769 C76.67143574 -0.03227766 101.44880827 6.55759457 120.9765625 24.97265625 C142.85143707 48.14574296 149.05951004 81.00272048 148.81518555 111.82250977 C148.79691804 114.19363256 148.79467709 116.56436081 148.79492188 118.93554688 C148.76424904 132.94377417 148.21878682 146.80018782 145.859375 160.63671875 C145.6830957 161.6935083 145.50681641 162.75029785 145.32519531 163.83911133 C144.76554732 167.14889691 144.18940504 170.45544953 143.609375 173.76171875 C143.42890625 174.81182129 143.2484375 175.86192383 143.0625 176.94384766 C132.82873439 235.8885101 111.74616998 294.98323046 69.609375 338.76171875 C69.0215625 339.40109375 68.43375 340.04046875 67.828125 340.69921875 C44.88357509 364.99344807 10.3781871 379.02130931 -22.69994736 380.14533329 C-26.92519159 380.2354077 -31.14889491 380.26028899 -35.375 380.265625 C-37.21437801 380.27530148 -39.05375387 380.28539637 -40.89312744 380.29588318 C-44.70484789 380.31364108 -48.51636624 380.31942376 -52.328125 380.31762695 C-57.20041851 380.31731914 -62.07142927 380.35866801 -66.9434166 380.40994358 C-70.72334747 380.4433117 -74.50296457 380.44938499 -78.28302765 380.44779778 C-80.08033011 380.45132178 -81.8776421 380.46450072 -83.67479706 380.48779488 C-99.37039512 380.67262852 -99.37039512 380.67262852 -103.91894531 376.93725586 C-109.51731518 370.74698813 -109.89849049 363.7555559 -109.66308594 355.68286133 C-109.40870713 352.02194907 -108.88318362 348.64559024 -108.12890625 345.05859375 C-107.99699387 344.42310104 -107.86508148 343.78760834 -107.72917175 343.13285828 C-107.4405144 341.74473176 -107.14943358 340.35710746 -106.85620117 338.96994019 C-106.37380474 336.68194049 -105.90069358 334.392177 -105.4296875 332.10180664 C-104.36360853 326.92396309 -103.28487117 321.7488094 -102.203125 316.57421875 C-102.0074292 315.63731201 -101.8117334 314.70040527 -101.61010742 313.73510742 C-98.8067732 300.33007285 -95.90593321 286.95069867 -92.9022522 273.58926392 C-90.11323195 261.1707113 -87.47768567 248.72380282 -84.890625 236.26171875 C-82.14784523 223.05303034 -79.34209236 209.86290657 -76.390625 196.69921875 C-73.51786278 183.87852812 -70.70428335 171.04659377 -67.953125 158.19921875 C-67.67252731 156.88916367 -67.67252731 156.88916367 -67.38626099 155.55264282 C-64.29473293 141.10418258 -61.27392199 126.64133764 -58.26403809 112.1756897 C-55.36255117 98.24423463 -52.33677241 84.34468628 -49.20556641 70.46313477 C-47.63939635 63.50224324 -46.12077856 56.53820096 -44.734375 49.5390625 C-44.53723152 48.55153992 -44.53723152 48.55153992 -44.33610535 47.54406738 C-43.7277601 44.49241744 -43.13080211 41.439497 -42.5559082 38.38134766 C-40.31326586 27.01806119 -37.09531472 14.93377886 -28.390625 6.76171875 C-27.89389282 6.26983063 -27.39716064 5.7779425 -26.88537598 5.27114868 C-19.019065 -1.24669108 -9.66029329 -0.08845135 0 0 Z " fill="#FFFEFE" transform="translate(630.390625,339.23828125)"/>
<path d="M0 0 C0.8346579 -0.0049649 1.6693158 -0.00992981 2.52926636 -0.01504517 C5.2978396 -0.0296759 8.06635533 -0.03647452 10.83496094 -0.04199219 C12.76772055 -0.04774812 14.70048015 -0.0535058 16.63323975 -0.05926514 C20.69527451 -0.0697813 24.75728947 -0.07561822 28.81933594 -0.07910156 C33.98683315 -0.08455144 39.15406221 -0.10850097 44.32147598 -0.13707352 C48.3213167 -0.15585098 52.32109521 -0.16091372 56.32097626 -0.16243744 C58.22327878 -0.16543659 60.12558094 -0.17337075 62.02783966 -0.18662262 C79.32004134 -0.29836893 93.95549338 1.97449273 109.81933594 9.16113281 C110.78613281 9.59039062 111.75292969 10.01964844 112.74902344 10.46191406 C132.38604711 20.10966917 145.38769346 40.21267341 152.56933594 60.28613281 C157.80888103 77.70159848 159.47595204 94.58865889 159.25683594 112.72363281 C159.24660904 114.29445114 159.24660904 114.29445114 159.23617554 115.89700317 C158.70374141 195.05497208 133.87064955 284.60442764 76.65039062 341.70092773 C42.5659889 374.75832845 0.8243975 380.06143357 -44.48675537 379.73760986 C-48.3667952 379.71878868 -52.2464259 379.73384473 -56.12646008 379.74871922 C-59.88492084 379.75928168 -63.64313711 379.75036603 -67.40157509 379.7353344 C-69.18569526 379.73017774 -70.96984116 379.7306036 -72.75395775 379.73687935 C-75.23163674 379.7423411 -77.70779721 379.72194496 -80.18530273 379.69458008 C-81.27222412 379.7043689 -81.27222412 379.7043689 -82.38110352 379.71435547 C-87.42969902 379.61973198 -90.29648404 378.33910236 -94.18066406 375.16113281 C-98.12942319 369.79266931 -98.89246037 365.5511456 -98.80566406 358.97363281 C-98.79656006 358.05984863 -98.78745605 357.14606445 -98.77807617 356.20458984 C-98.44128258 345.67869093 -96.03797981 335.66061776 -93.62924194 325.44822693 C-91.72153337 317.31005769 -90.06605375 309.11918595 -88.3782959 300.93319702 C-85.36330343 286.33786337 -82.24789013 271.7673464 -78.99316406 257.22363281 C-78.82656281 256.47904816 -78.65996155 255.7344635 -78.48831177 254.96731567 C-78.1569813 253.48681833 -77.82563692 252.0063241 -77.49427795 250.52583313 C-77.33406662 249.80993515 -77.17385529 249.09403717 -77.00878906 248.35644531 C-76.85119614 247.65235031 -76.69360321 246.94825531 -76.53123474 246.2228241 C-73.25294766 231.55477951 -70.15293342 216.84824877 -67.09082031 202.13378906 C-66.32938759 198.47617735 -65.56770669 194.8186175 -64.80566406 191.16113281 C-64.61320099 190.2373584 -64.42073792 189.31358398 -64.22244263 188.36181641 C-61.62748496 175.92097721 -58.95993188 163.49957946 -56.18066406 151.09863281 C-53.30821928 138.27786901 -50.49432067 125.44601227 -47.74316406 112.59863281 C-47.55709595 111.72991547 -47.37102783 110.86119812 -47.17932129 109.96615601 C-44.61693096 97.99054395 -42.09745398 86.00626577 -39.59936523 74.01708984 C-37.95554023 66.12785826 -36.3010662 58.24087481 -34.64160156 50.35491943 C-34.22063873 48.35138829 -33.80208725 46.34735088 -33.38378906 44.34326172 C-26.64327096 12.2275015 -26.64327096 12.2275015 -14.49316406 3.22363281 C-9.5422797 0.1410067 -5.66455928 0.00803053 0 0 Z " fill="#FFFEFE" transform="translate(1980.1806640625,339.8388671875)"/>
<path d="M0 0 C2 2 2 2 2.33984375 5.59765625 C2.16154967 13.01380581 0.1983689 20.23557968 -1.4375 27.4375 C-1.80054099 29.06869308 -2.16249535 30.70012833 -2.5234375 32.33178711 C-3.09230086 34.90238441 -3.66195554 37.47278299 -4.2350769 40.04243469 C-5.60596604 46.19103841 -6.94156981 52.34645811 -8.25390625 58.5078125 C-8.53565956 59.83012627 -8.53565956 59.83012627 -8.82310486 61.17915344 C-9.55157052 64.60076305 -10.27916767 68.02255627 -11.00582886 71.44454956 C-14.87773125 89.65743132 -18.94669493 107.8268302 -23 126 C-21.82680206 125.99555878 -20.65360413 125.99111755 -19.44485474 125.98654175 C-8.40838062 125.94606292 2.62807851 125.91604801 13.66460991 125.89637566 C19.33910075 125.88592205 25.01353184 125.87173417 30.68798828 125.84912109 C36.16037715 125.82744884 41.63270841 125.81544326 47.10513687 125.81024551 C49.19680819 125.80653963 51.28847623 125.79930337 53.38012314 125.78853989 C56.30149999 125.77409959 59.22263639 125.77201892 62.14404297 125.77294922 C63.01582184 125.76575867 63.88760071 125.75856812 64.78579712 125.75115967 C70.77189568 125.77189568 70.77189568 125.77189568 73 128 C73.79644515 134.94045056 73.79644515 134.94045056 71.04560852 138.60002136 C66.86751402 141.8924135 63.88352868 141.6744483 58.71166992 141.56762695 C57.32069092 141.56872215 57.32069092 141.56872215 55.90161133 141.56983948 C52.84396373 141.56636281 49.78784941 141.52749732 46.73046875 141.48828125 C44.60769991 141.47895342 42.4849203 141.47183717 40.36213684 141.46684265 C34.78054988 141.44777064 29.19961559 141.39866736 23.61828613 141.34332275 C17.92074411 141.29213509 12.22309641 141.26932959 6.52539062 141.24414062 C-4.65002602 141.19054942 -15.82495869 141.10523357 -27 141 C-27.05909042 141.72603928 -27.11818085 142.45207855 -27.17906189 143.20011902 C-27.60181155 148.15298081 -28.04299152 153.00377924 -29.12890625 157.86328125 C-29.46825195 159.41112305 -29.46825195 159.41112305 -29.81445312 160.99023438 C-30.06130859 162.08658203 -30.30816406 163.18292969 -30.5625 164.3125 C-31.1063948 166.7875571 -31.64930893 169.26282984 -32.19140625 171.73828125 C-32.33534821 172.39192657 -32.47929016 173.0455719 -32.62759399 173.71902466 C-34.29848539 181.31803936 -35.89103497 188.93336683 -37.48626709 196.54855347 C-41.09879932 213.78694609 -44.77474842 231.01131812 -48.4798584 248.2300415 C-49.75880432 254.17389422 -51.0364502 260.11802483 -52.3125 266.0625 C-52.50235474 266.94693787 -52.69220947 267.83137573 -52.88781738 268.74261475 C-56.05986503 283.52931414 -59.17350521 298.32777481 -62.26281738 313.13195801 C-64.72895586 324.94946549 -67.22039566 336.76056112 -69.76245117 348.56201172 C-71.87209003 358.36831513 -73.93787183 368.18362312 -76 378 C-78.54358714 390.10741515 -81.10893468 402.20966338 -83.7109375 414.3046875 C-85.65876295 423.37359525 -87.57290239 432.44938409 -89.48031616 441.52685547 C-92.03563931 453.68748664 -94.59220322 465.8478245 -97.1875 478 C-97.54884033 479.69334473 -97.54884033 479.69334473 -97.91748047 481.42089844 C-99.21716791 487.47421278 -100.57576124 493.50966978 -101.99023438 499.53710938 C-104.89215568 511.9394746 -107.07405918 524.41157444 -109 537 C-109.17950195 538.09489746 -109.35900391 539.18979492 -109.54394531 540.31787109 C-110.87009249 548.78836931 -111.3658842 557.05614596 -111.375 565.625 C-111.41173828 567.45417969 -111.41173828 567.45417969 -111.44921875 569.3203125 C-111.47875175 578.53460828 -110.41142182 588.04704235 -104.5625 595.5625 C-97.71454385 602.0764095 -90.56297395 603.43581716 -81.3515625 603.23828125 C-67.03612226 602.22051685 -52.60587674 594.42075036 -42 585 C-41.21625 584.32324219 -40.4325 583.64648438 -39.625 582.94921875 C-37.04041445 580.67559115 -34.51397042 578.35141294 -32 576 C-31.11183594 575.17757812 -30.22367188 574.35515625 -29.30859375 573.5078125 C-22.33521809 566.82210098 -16.79000145 559.58124545 -11.22949219 551.71679688 C-4.95390782 542.95390782 -4.95390782 542.95390782 -2 540 C2.03160191 539.73706944 3.55892734 539.70595156 7 542 C6.5707855 548.01680694 4.7250453 551.81368779 1.4375 556.8125 C0.98640869 557.51391113 0.53531738 558.21532227 0.07055664 558.93798828 C-3.61342591 564.58654476 -7.58009031 569.90277606 -12 575 C-12.70769531 575.82886719 -13.41539062 576.65773438 -14.14453125 577.51171875 C-33.99473 600.21255901 -62.80598365 618.49979514 -93.3515625 621.81640625 C-94.55554687 621.87699219 -95.75953125 621.93757812 -97 622 C-98.33949707 622.06936768 -98.33949707 622.06936768 -99.70605469 622.14013672 C-120.68806363 623.07868249 -138.5224848 620.62411656 -154.69628906 605.98828125 C-161.70074953 599.27879178 -166.03580363 591.78266265 -170 583 C-170.41894531 582.09894531 -170.83789062 581.19789063 -171.26953125 580.26953125 C-176.91851383 566.62311266 -177.28945376 551.67369339 -177.375 537.125 C-177.38885742 535.84987549 -177.40271484 534.57475098 -177.41699219 533.26098633 C-177.32565013 514.16929457 -173.2740565 495.69221906 -169.10266113 477.14004517 C-167.74099339 471.08264316 -166.40500842 465.01956445 -165.06640625 458.95703125 C-164.80040619 457.75517685 -164.53440613 456.55332245 -164.26034546 455.31504822 C-161.98398878 445.00172726 -159.8384146 434.66526271 -157.75 424.3125 C-155.32997667 412.3460156 -152.80068511 400.41197453 -150.125 388.5 C-146.97570469 374.4764528 -143.92590292 360.43374486 -140.9375 346.375 C-140.72371704 345.36956146 -140.50993408 344.36412292 -140.28967285 343.32821655 C-137.45551258 329.98572362 -134.68090896 316.63217112 -131.95822144 303.26654053 C-129.6029631 291.72222838 -127.07190416 280.22181792 -124.48919678 268.72647095 C-122.04506623 257.83949964 -119.7204581 246.93470276 -117.5 236 C-115.00830622 223.73745129 -112.37146899 211.51444021 -109.63256836 199.30480957 C-106.67921221 186.13587773 -103.82041547 172.94802973 -101 159.75 C-100.69742279 158.33424683 -100.69742279 158.33424683 -100.38873291 156.88989258 C-99.25725772 151.59366521 -98.12776261 146.29701909 -97 141 C-97.8054425 141.00888245 -98.61088501 141.01776489 -99.44073486 141.0269165 C-107.03298545 141.10708005 -114.62503072 141.16797298 -122.21759415 141.20724869 C-126.12099518 141.22811969 -130.0240464 141.25642757 -133.92724609 141.30175781 C-137.6944192 141.34523427 -141.46125595 141.36914077 -145.22866058 141.37950897 C-146.66560919 141.38689723 -148.10253947 141.40132506 -149.53934479 141.42292023 C-151.55241425 141.45197203 -153.56582253 141.45363405 -155.57910156 141.45410156 C-156.72493713 141.46298401 -157.87077271 141.47186646 -159.05133057 141.48101807 C-162.66147227 140.89209366 -163.85891011 139.92635461 -166 137 C-166.0625 133.5 -166.0625 133.5 -165 130 C-161.42700549 126.45089979 -158.97045062 125.49195541 -153.984375 125.3125 C-152.82405762 125.25618408 -151.66374023 125.19986816 -150.46826172 125.1418457 C-149.24123535 125.09503662 -148.01420898 125.04822754 -146.75 125 C-111.35406014 123.01799009 -80.43425534 108.48820293 -55 84 C-54.23300781 83.30777344 -53.46601562 82.61554688 -52.67578125 81.90234375 C-31.88628347 62.53116 -18.9259377 32.99673077 -11.9375 5.9375 C-9.78965466 -0.79241539 -6.50726866 -0.51644989 0 0 Z " fill="#FF6F41" transform="translate(1438,115)"/>
<path d="M0 0 C1.2559346 -0.01283524 2.5118692 -0.02567047 3.80586243 -0.03889465 C5.18201296 -0.04706966 6.558168 -0.05451192 7.93432617 -0.0612793 C8.6312174 -0.06535482 9.32810863 -0.06943035 10.04611778 -0.07362938 C13.74509762 -0.09449593 17.44404046 -0.10878696 21.14306641 -0.11816406 C24.92749818 -0.12914306 28.71132796 -0.16344011 32.4955492 -0.20333576 C35.43420845 -0.22976363 38.37273107 -0.23787944 41.31149864 -0.24144554 C42.70388475 -0.24625583 44.09626713 -0.25770661 45.48853493 -0.27648354 C62.91408804 -0.49661109 78.80161062 4.1328004 91.72729492 16.23950195 C111.31313799 37.08157985 112.91736848 65.27576946 112.07885742 92.44702148 C109.70626237 146.38825242 94.40193841 207.51185972 56.91479492 248.17700195 C56.02920898 249.14508789 55.14362305 250.11317383 54.23120117 251.1105957 C45.20461183 260.55641706 35.18307679 267.31252128 23.53979492 273.05200195 C22.81018555 273.42147949 22.08057617 273.79095703 21.32885742 274.17163086 C9.34408707 279.81810144 -3.54618018 280.6423626 -16.59301758 280.57543945 C-18.01691842 280.57746818 -19.44081823 280.58038619 -20.86471558 280.58413696 C-23.81429165 280.58850853 -26.76359132 280.58228963 -29.71313477 280.56811523 C-33.48460431 280.55086719 -37.25544047 280.56099422 -41.02688789 280.57883263 C-43.95232927 280.58967767 -46.87762033 280.5862236 -49.80306625 280.57844925 C-51.19447786 280.57645735 -52.58590339 280.57887079 -53.97729874 280.58588791 C-55.91446916 280.59353094 -57.85168807 280.57981039 -59.78881836 280.56518555 C-60.88719025 280.56279877 -61.98556213 280.56041199 -63.11721802 280.55795288 C-66.49402675 280.12452834 -68.35702128 279.18151761 -71.08520508 277.17700195 C-77.46546956 268.290205 -76.10667355 255.74370813 -74.5065918 245.45727539 C-72.69076283 235.30009495 -70.3701011 225.23660929 -68.08520508 215.17700195 C-67.78297217 213.83657755 -67.48104207 212.49608482 -67.17944336 211.15551758 C-66.02999772 206.05288047 -64.8768816 200.95115498 -63.7097168 195.85253906 C-61.55892004 186.42262831 -59.57183304 176.96777962 -57.64770508 167.48950195 C-55.2897363 155.8773087 -52.80950288 144.30005196 -50.21020508 132.73950195 C-47.21369397 119.40958874 -44.3619343 106.05438041 -41.58520508 92.67700195 C-38.7120252 78.84510022 -35.77591265 65.03010316 -32.71020508 51.23950195 C-32.46524292 50.13421143 -32.46524292 50.13421143 -32.21533203 49.0065918 C-31.19124644 44.39221324 -30.14755029 39.78275861 -29.08520508 35.17700195 C-28.82433105 34.04294922 -28.56345703 32.90889648 -28.29467773 31.74047852 C-25.6236132 20.54925266 -21.4600347 9.89437587 -11.96020508 2.86450195 C-7.76626139 0.40283935 -4.78826372 0.04262562 0 0 Z " fill="#FFFEFE" transform="translate(681.085205078125,44.822998046875)"/>
<path d="M0 0 C1.24602493 -0.01591187 2.49204987 -0.03182373 3.77583313 -0.04821777 C5.12684065 -0.04948653 6.47784957 -0.04966093 7.82885742 -0.04882812 C9.23687537 -0.05594481 10.64489048 -0.06364596 12.05290222 -0.07189941 C15.00589022 -0.08532745 17.95861117 -0.08692468 20.91162109 -0.08105469 C23.90747513 -0.07636786 26.9022645 -0.09002475 29.89794922 -0.12207031 C69.60533057 -0.54248749 69.60533057 -0.54248749 85.62182617 11.41992188 C86.37592773 11.97035156 87.1300293 12.52078125 87.90698242 13.08789062 C101.75733336 24.22993966 109.09460436 42.30324313 111.18823242 59.58789062 C111.95342418 67.94181897 111.8661613 76.35052726 111.87182617 84.73242188 C111.87250092 85.62930725 111.87317566 86.52619263 111.87387085 87.45025635 C111.85914976 99.76616858 111.55005996 111.74561705 109.12670898 123.85986328 C108.5441214 126.81393166 108.03239288 129.77706391 107.52026367 132.74414062 C105.2676276 145.47506 102.41019125 157.8177056 98.37915039 170.10253906 C97.62747133 172.4026479 96.90556508 174.71046206 96.18823242 177.02148438 C89.15304974 199.33313225 79.02927001 220.91261945 64.62182617 239.41992188 C64.19724121 239.96551758 63.77265625 240.51111328 63.33520508 241.07324219 C58.28418654 247.48997032 53.0523505 253.35907601 46.62182617 258.41992188 C45.33405273 259.47953125 45.33405273 259.47953125 44.02026367 260.56054688 C29.05467883 272.42006694 11.2699618 280.39122817 -8.04443359 280.61279297 C-9.96661461 280.63688736 -9.96661461 280.63688736 -11.92762756 280.66146851 C-13.30827157 280.67295231 -14.68892308 280.68356147 -16.06958008 280.69335938 C-16.77278822 280.69868305 -17.47599636 280.70400673 -18.20051384 280.70949173 C-21.91621682 280.73608307 -25.63188769 280.75550995 -29.34765625 280.77001953 C-32.41175947 280.78339562 -35.47520255 280.81133395 -38.5390625 280.85205078 C-42.25602066 280.90142253 -45.97237758 280.92614333 -49.68964958 280.93324661 C-51.09983857 280.93994209 -52.51001499 280.95511999 -53.92001534 280.97913742 C-66.29455665 281.17806439 -66.29455665 281.17806439 -70.17089844 278.10205078 C-76.27333001 270.68679658 -76.08054245 262.65105235 -75.37817383 253.41992188 C-73.94749215 242.65946151 -71.490622 232.0347489 -69.25317383 221.41992188 C-69.05498047 220.47552246 -68.85678711 219.53112305 -68.65258789 218.55810547 C-65.82752093 205.09948647 -62.90571346 191.66537144 -59.89007568 178.24829102 C-57.10093899 165.82947178 -54.46504617 153.38233926 -51.87817383 140.91992188 C-48.99028852 127.0073559 -46.01343392 113.12071462 -42.89144897 99.25881958 C-40.87188985 90.28422422 -38.91920467 81.29906099 -37.05395508 72.29101562 C-36.85679901 71.34014069 -36.65964294 70.38926575 -36.45651245 69.40957642 C-35.50013986 64.79021891 -34.55047133 60.16961646 -33.6105957 55.546875 C-31.85773286 46.9919468 -29.97556058 38.48863274 -27.78833008 30.03320312 C-27.59064529 29.25810898 -27.39296051 28.48301483 -27.18928528 27.68443298 C-24.66972747 18.19058438 -20.38218208 9.45573138 -12.37817383 3.41992188 C-8.07337433 0.94575653 -4.95312276 0.03825388 0 0 Z " fill="#FFFEFE" transform="translate(2041.378173828125,44.580078125)"/>
<path d="M0 0 C10.37170003 8.64572247 16.55766753 20.34639398 20.43359375 33.1328125 C20.7277417 34.08583252 20.7277417 34.08583252 21.02783203 35.05810547 C29.3125612 63.35353781 26.47483831 98.69379052 16.43359375 126.1328125 C16.08723877 127.08945801 16.08723877 127.08945801 15.73388672 128.06542969 C1.92403401 165.6699908 -26.50686475 193.75689484 -61.56640625 212.1328125 C-62.2119043 212.4740918 -62.85740234 212.81537109 -63.52246094 213.16699219 C-87.87944645 225.96390011 -113.78109315 234.9289694 -140.56640625 241.1328125 C-142.47394941 241.62794521 -144.3814729 242.12316794 -146.2878418 242.62280273 C-153.31263575 244.44507947 -160.38383841 245.98021361 -167.50390625 247.3828125 C-168.36781982 247.558125 -169.2317334 247.7334375 -170.12182617 247.9140625 C-176.78790257 249.18807228 -183.5080198 250.46003681 -189.87890625 247.6953125 C-194.83521906 242.96952587 -196.7690824 237.69029073 -197.12890625 230.8828125 C-196.78115065 221.42146185 -193.99885619 212.22997911 -191.56640625 203.1328125 C-191.35242187 202.31731934 -191.1384375 201.50182617 -190.91796875 200.66162109 C-179.34935274 156.93118141 -163.01169635 112.38309837 -138.56640625 74.1328125 C-138.1703418 73.50842285 -137.77427734 72.8840332 -137.36621094 72.24072266 C-128.64914049 58.59005683 -119.15723185 45.52974318 -108.02734375 33.74609375 C-105.90204591 31.48922985 -103.87915989 29.18712846 -101.87890625 26.8203125 C-98.41531157 22.85144048 -94.64413415 19.46045667 -90.56640625 16.1328125 C-89.63054687 15.359375 -88.6946875 14.5859375 -87.73046875 13.7890625 C-63.28002263 -5.9716763 -28.49449782 -20.73115671 0 0 Z " fill="#FFFEFE" transform="translate(1729.56640625,253.8671875)"/>
<path d="M0 0 C6.80192355 11.20957001 0.23204723 31.13873567 -2 43 C-2.23557617 44.26166992 -2.47115234 45.52333984 -2.71386719 46.82324219 C-5.54448046 61.9387777 -8.5071013 77.02162854 -12 92 C-11.14019531 91.40832031 -10.28039063 90.81664062 -9.39453125 90.20703125 C3.42305297 81.55525338 15.2081398 75.96014723 31 78 C36.19871389 80.19992857 40.24847168 82.71413287 42.9765625 87.83203125 C48.71255109 102.27921747 43.48068914 119.1489711 39.95703125 133.62109375 C39.7820813 134.34450455 39.60713135 135.06791534 39.42687988 135.81324768 C38.71281984 138.75919397 37.9983881 141.70457674 37.25317383 144.64282227 C34.48492407 155.61248303 33.51124032 165.69086659 34 177 C35.43811035 176.29532593 35.43811035 176.29532593 36.90527344 175.57641602 C46.3285143 170.95902799 46.3285143 170.95902799 49.3046875 171.140625 C52.26677518 172.6421441 52.93629365 174.98616535 54 178 C51.39554873 185.35289833 43.22240071 189.04692198 36.63305664 192.24707031 C16.43143294 201.77889925 16.43143294 201.77889925 5.9140625 198.3125 C0.73278324 195.59741916 -2.97991642 191.6040866 -5.109375 186.16796875 C-10.09404846 168.43739781 -1.68743156 146.4725646 2.38745117 129.16796875 C3.85795871 122.8841803 5.13074327 116.6691188 5.1875 110.1875 C5.20167969 109.43855469 5.21585938 108.68960938 5.23046875 107.91796875 C5.17142004 105.75962321 5.17142004 105.75962321 3 104 C-2.93401722 103.24476145 -8.07256239 104.19568764 -13.42578125 106.9284668 C-16.75212989 109.60525627 -17.14313337 111.48552298 -18.10546875 115.61328125 C-18.26297104 116.27020966 -18.42047333 116.92713806 -18.58274841 117.60397339 C-19.08219536 119.73089752 -19.54558604 121.86302865 -20 124 C-20.15200867 124.70258942 -20.30401733 125.40517883 -20.46063232 126.12905884 C-21.5646832 131.28122249 -22.5753488 136.4493409 -23.5625 141.625 C-23.71374329 142.41003906 -23.86498657 143.19507813 -24.02081299 144.00390625 C-27.14182418 160.22937192 -30.00826298 176.48244893 -31 193 C-44.209394 196.11791808 -56.4311101 197.55257923 -70 197 C-70.32010416 186.87403839 -69.58668383 177.69995138 -67.5 167.75 C-67.23107884 166.42054994 -66.96286963 165.09095571 -66.6953125 163.76123047 C-62.7902238 144.56206294 -58.33957008 125.4647339 -53.65942383 106.44116211 C-42.60933794 62.142979 -42.60933794 62.142979 -38.9375 16.875 C-38.94201172 15.91851563 -38.94652344 14.96203125 -38.95117188 13.9765625 C-38.96279983 11.65097242 -38.97913898 9.3255224 -39 7 C-33.35677248 4.3094448 -27.88537218 2.94112248 -21.75 1.8125 C-20.82356689 1.6381543 -19.89713379 1.46380859 -18.94262695 1.28417969 C-12.59405038 0.14559142 -6.45758802 -0.54443365 0 0 Z " fill="#020202" transform="translate(1651,866)"/>
<path d="M0 0 C1.71118515 0.00068733 1.71118515 0.00068733 3.4569397 0.00138855 C5.86567223 0.00439816 8.27440304 0.01224554 10.68310547 0.0246582 C14.30573715 0.04274002 17.92810942 0.04516862 21.55078125 0.04492188 C32.2178953 0.06128832 42.84258925 0.18469858 53.49003601 0.84344482 C65.52090867 1.5512512 77.58360644 1.58597369 89.63134766 1.76269531 C93.06481935 1.81383037 96.49822586 1.86902533 99.93164062 1.92382812 C106.61322861 2.02968476 113.29486687 2.13165266 119.9765625 2.23046875 C120.05782359 4.96023939 120.11717913 7.68757045 120.1640625 10.41796875 C120.18919922 11.18689453 120.21433594 11.95582031 120.24023438 12.74804688 C120.29996262 17.38694073 120.07698014 20.50852217 116.9765625 24.23046875 C114.07861505 25.19645123 112.52391044 25.31048903 109.5390625 25.1796875 C108.65234863 25.14157959 107.76563477 25.10347168 106.85205078 25.06420898 C105.90313965 25.01594971 104.95422852 24.96769043 103.9765625 24.91796875 C102.52032471 24.84848022 102.52032471 24.84848022 101.03466797 24.77758789 C91.64042946 24.28809782 82.3152409 23.34118916 72.9765625 22.23046875 C72.85667969 23.47957031 72.73679687 24.72867188 72.61328125 26.015625 C71.98566966 31.63346072 70.91625013 37.13174671 69.7890625 42.66796875 C69.5720166 43.74328857 69.3549707 44.8186084 69.13134766 45.92651367 C66.2360566 60.08639254 63.03877633 74.19387069 59.453125 88.1953125 C57.88941495 94.41518966 56.6555959 100.67784514 55.4765625 106.98046875 C55.26008057 108.12805664 55.04359863 109.27564453 54.82055664 110.45800781 C54.39382335 112.72050845 53.96808226 114.98319652 53.54345703 117.24609375 C53.08858697 119.6407241 52.61845588 122.03027688 52.12890625 124.41796875 C48.1876348 144.059715 45.51944099 164.19825242 44.9765625 184.23046875 C35.51371699 190.01331879 23.95649314 189.51326185 13.2265625 189.35546875 C12.040625 189.34644531 10.8546875 189.33742188 9.6328125 189.328125 C6.74717343 189.30485372 3.86198395 189.27216559 0.9765625 189.23046875 C0.31430864 177.88824188 2.32370316 167.42281354 4.5390625 156.35546875 C4.9045508 154.48601853 5.26953491 152.61646967 5.6340332 150.74682617 C8.54386325 135.93735176 11.79360874 121.21834664 15.21240234 106.51855469 C21.8239857 78.0697353 27.55296874 49.24950155 30.9765625 20.23046875 C26.83023125 20.34144661 22.6847197 20.47180973 18.5390625 20.60546875 C17.37439453 20.63640625 16.20972656 20.66734375 15.00976562 20.69921875 C6.84912636 20.97507134 -0.8053056 21.68365416 -8.3984375 24.85546875 C-12.0234375 26.23046875 -12.0234375 26.23046875 -15.0234375 26.23046875 C-15.84261392 24.50445496 -16.65349766 22.77450405 -17.4609375 21.04296875 C-17.91339844 20.08003906 -18.36585937 19.11710938 -18.83203125 18.125 C-21.0538886 12.72697937 -21.12088898 7.98010589 -21.0234375 2.23046875 C-13.89392157 0.35591776 -7.35302909 -0.04914325 0 0 Z " fill="#020202" transform="translate(1259.0234375,872.76953125)"/>
<path d="M0 0 C1.52113403 0.0146228 1.52113403 0.0146228 3.07299805 0.02954102 C14.68195978 0.30561064 22.05322247 2.85417451 30.45703125 11.09765625 C36.3159397 17.6087623 37.23186717 23.07916766 36.94140625 31.83984375 C35.80397559 42.63957194 31.58959807 51.12340429 23.44921875 58.30078125 C10.63236703 68.01573944 -10.22790354 76.91109968 -26.4375 75.4375 C-25.17329486 83.40531922 -23.75229879 91.91472759 -17.375 97.4375 C-12.80582366 100.54842857 -8.83516475 101.03630343 -3.4375 100.4375 C4.2678534 98.71755505 10.87168866 96.08315005 17.44140625 91.70703125 C19.51344252 90.46686221 21.20382339 89.88142326 23.5625 89.4375 C27.56640625 93.734375 27.56640625 93.734375 28.5625 95.4375 C28.44442595 98.27127717 27.72570083 99.27150941 25.734375 101.296875 C23.04465701 103.39659033 20.32947684 105.44033824 17.5625 107.4375 C16.62148437 108.12585937 15.68046875 108.81421875 14.7109375 109.5234375 C-0.10673958 119.5167546 -17.71624003 123.82630604 -35.3984375 120.95703125 C-45.4616611 118.40252064 -53.06681552 112.21496195 -58.4375 103.4375 C-66.41930937 87.37048995 -68.05164959 63.50681794 -62.3125 46.25 C-61.42023021 43.95240529 -60.46794797 41.67653189 -59.4375 39.4375 C-59.0146875 38.45652344 -58.591875 37.47554687 -58.15625 36.46484375 C-50.5758798 20.79727626 -35.44128262 8.6045511 -19.30493164 2.65063477 C-12.80522468 0.47847796 -6.8277968 -0.07318536 0 0 Z " fill="#020202" transform="translate(1433.4375,943.5625)"/>
<path d="M0 0 C0.82725586 -0.01804687 1.65451172 -0.03609375 2.50683594 -0.0546875 C9.49060897 0.01276141 14.94988916 1.88738916 19.9375 6.875 C26.90533658 18.13073601 23.38257557 32.67366286 21.25 44.9375 C21.03666016 46.22720703 20.82332031 47.51691406 20.60351562 48.84570312 C19.72905564 54.05852879 18.84180606 59.26187263 17.73388672 64.43066406 C16.14924692 71.86071788 15.12227527 78.77789992 15.3125 86.375 C15.32023437 87.69177734 15.32023437 87.69177734 15.328125 89.03515625 C14.98791829 93.09027958 14.98791829 93.09027958 16.5625 96.5 C25.11511395 96.59002752 29.85174183 93.23265957 35.9375 87.5 C43.13109826 80.13628286 50.54980821 70.70136388 52.01953125 60.25 C51.38271524 55.024843 48.9173546 52.88631952 45.25 49.3125 C44.06498496 48.11207848 42.88134858 46.91029413 41.69921875 45.70703125 C41.14741943 45.14838379 40.59562012 44.58973633 40.02709961 44.01416016 C37.07467489 40.96182842 35.1332422 38.85187964 35.125 34.5 C35.5814506 22.87952854 41.64447733 11.07165725 49 2.25 C52.54405794 -0.17033225 55.47431879 -0.16622212 59.5625 0.5 C66.53887376 1.8846238 70.5590669 5.74433965 74.5625 11.5 C80.73338439 30.01265317 71.7527109 53.77423496 63.69921875 70.41015625 C53.03834181 91.33305053 37.23513682 111.16437045 14.8515625 119.7734375 C7.61271694 122.07109155 -0.76304425 123.12989094 -7.8125 119.8125 C-14.99484543 115.57638198 -18.10669145 110.3522169 -20.4375 102.5 C-20.92958957 98.72844607 -20.91275396 95.0477455 -20.8125 91.25 C-20.79960938 90.19989746 -20.78671875 89.14979492 -20.7734375 88.06787109 C-20.64464951 81.37592626 -20.14864792 74.77673439 -19.4375 68.125 C-18.4936906 59.09828841 -18.12519403 50.10112013 -18.02807617 41.03045654 C-18.00959151 39.52905994 -17.98247242 38.02774081 -17.94604492 36.52667236 C-17.71585255 26.41720179 -18.62114019 18.56840411 -25.12329102 10.37597656 C-26.4375 8.5 -26.4375 8.5 -26.125 6.25 C-25.7846875 5.38375 -25.7846875 5.38375 -25.4375 4.5 C-16.91753539 1.60837565 -9.00277562 0.08053172 0 0 Z " fill="#020202" transform="translate(1739.4375,943.5)"/>
<path d="M0 0 C1.05380859 0.00483398 1.05380859 0.00483398 2.12890625 0.00976562 C3.19818359 0.02233398 3.19818359 0.02233398 4.2890625 0.03515625 C5.02511719 0.03966797 5.76117187 0.04417969 6.51953125 0.04882812 C8.31774408 0.06050483 10.11591447 0.07843614 11.9140625 0.09765625 C16.21465015 13.55884524 11.73221142 29.88758317 8.9140625 43.09765625 C17.1640625 43.09765625 25.4140625 43.09765625 33.9140625 43.09765625 C32.9140625 51.09765625 32.9140625 51.09765625 29.9140625 58.09765625 C21.9940625 58.09765625 14.0740625 58.09765625 5.9140625 58.09765625 C5.43195313 60.65257812 4.94984375 63.2075 4.453125 65.83984375 C3.97994632 68.34540192 3.50658329 70.8509252 3.03320312 73.35644531 C2.70716448 75.08264598 2.38131408 76.80888222 2.05566406 78.53515625 C1.58449363 81.03264861 1.11272766 83.53002745 0.640625 86.02734375 C0.4880423 86.83513779 0.33545959 87.64293182 0.17825317 88.47520447 C-0.60023094 92.58345162 -1.40045871 96.68538672 -2.2421875 100.78125 C-3.07967693 104.93181522 -3.7167297 109.08033073 -4.2109375 113.28515625 C-4.33831299 114.35721313 -4.33831299 114.35721313 -4.46826172 115.45092773 C-5.25941922 122.67879621 -5.2762629 129.8335702 -5.0859375 137.09765625 C-0.5629902 138.49702116 1.77119474 137.59666798 5.9765625 135.59765625 C11.35348742 133.04819374 11.35348742 133.04819374 14.171875 133.296875 C16.92945309 134.56437166 17.71575037 136.38568669 18.9140625 139.09765625 C18.84375 140.99609375 18.84375 140.99609375 17.9140625 143.09765625 C5.39005759 153.90385507 -10.30050466 161.73375724 -26.96484375 161.40625 C-34.1243084 160.69836801 -38.36084843 157.39238639 -42.859375 151.9765625 C-51.22218458 139.16601662 -44.8109278 118.89646038 -41.95117188 105.15234375 C-39.95991171 95.77145084 -37.88638514 86.40783055 -35.765625 77.05541992 C-35.59589172 76.30583008 -35.42615845 75.55624023 -35.25128174 74.78393555 C-34.93294455 73.38112573 -34.6130333 71.97867173 -34.29119873 70.57666016 C-33.42228554 66.75319925 -32.73205661 62.97437092 -32.0859375 59.09765625 C-36.7059375 59.42765625 -41.3259375 59.75765625 -46.0859375 60.09765625 C-46.0859375 54.48765625 -46.0859375 48.87765625 -46.0859375 43.09765625 C-40.4759375 43.09765625 -34.8659375 43.09765625 -29.0859375 43.09765625 C-28.4259375 30.88765625 -27.7659375 18.67765625 -27.0859375 6.09765625 C-6.18163128 -0.05066911 -6.18163128 -0.05066911 0 0 Z " fill="#020202" transform="translate(2038.0859375,903.90234375)"/>
<path d="M0 0 C1.13179687 -0.00257813 2.26359375 -0.00515625 3.4296875 -0.0078125 C6.125 0.125 6.125 0.125 7.125 1.125 C8.53019282 15.53937103 6.36961075 29.13261612 3.125 43.125 C11.705 43.125 20.285 43.125 29.125 43.125 C26.125 55.125 26.125 55.125 25.125 58.125 C16.875 57.795 8.625 57.465 0.125 57.125 C-0.205 59.765 -0.535 62.405 -0.875 65.125 C-1.35986296 67.82115216 -1.86342977 70.50554956 -2.3984375 73.19140625 C-2.69955176 74.73380588 -3.0002354 76.27628962 -3.30053711 77.81884766 C-3.4560202 78.61446106 -3.6115033 79.41007446 -3.771698 80.22979736 C-6.03597638 91.86454471 -8.26861065 103.49369522 -9.8125 115.25 C-9.92835449 116.11052979 -10.04420898 116.97105957 -10.16357422 117.85766602 C-11.79132747 128.23008651 -11.79132747 128.23008651 -9.875 138.125 C-4.45185619 137.65342228 -0.09514574 136.14031204 4.890625 133.96484375 C7.125 133.125 7.125 133.125 10.125 133.125 C14.125 139.875 14.125 139.875 14.125 142.125 C12.09876221 143.8140378 10.08613399 145.35481689 7.9375 146.875 C7.30980713 147.32166016 6.68211426 147.76832031 6.03540039 148.22851562 C0.05896068 152.36599324 -6.13781905 155.3819387 -12.875 158.125 C-13.76960938 158.49367188 -14.66421875 158.86234375 -15.5859375 159.2421875 C-22.71480771 161.991547 -32.0437211 162.47304258 -39.25 159.9375 C-40.11625 159.339375 -40.9825 158.74125 -41.875 158.125 C-42.926875 157.403125 -43.97875 156.68125 -45.0625 155.9375 C-50.12589171 150.87410829 -51.23682477 145.09943241 -51.29272461 138.1784668 C-51.27862549 137.35644775 -51.26452637 136.53442871 -51.25 135.6875 C-51.23912354 134.80553955 -51.22824707 133.9235791 -51.21704102 133.01489258 C-50.85515895 117.85544798 -46.81758075 103.25581378 -43.43896484 88.54736328 C-41.27712592 79.10718027 -39.42271764 69.68443248 -37.875 60.125 C-42.495 60.125 -47.115 60.125 -51.875 60.125 C-51.875 54.515 -51.875 48.905 -51.875 43.125 C-45.935 43.125 -39.995 43.125 -33.875 43.125 C-33.545 30.915 -33.215 18.705 -32.875 6.125 C-29.884375 5.320625 -26.89375 4.51625 -23.8125 3.6875 C-22.88429443 3.43556885 -21.95608887 3.1836377 -20.99975586 2.92407227 C-13.97199116 1.0550578 -7.29873672 -0.0168562 0 0 Z " fill="#010101" transform="translate(2126.875,903.875)"/>
<path d="M0 0 C5.65837889 4.41182458 9.52498984 9.5969897 10.56640625 16.8046875 C10.8466882 24.68061037 9.77851251 33.15088279 4.69921875 39.5 C2.44644482 41.24534218 0.33635637 41.18660335 -2.4375 41.07421875 C-10.05756501 39.97692939 -19.15818441 37.11424067 -24.87890625 31.72265625 C-26.72123038 27.86557372 -25.3349885 23.7838283 -24.50390625 19.78515625 C-24.3646875 19.08197266 -24.22546875 18.37878906 -24.08203125 17.65429688 C-23.68886854 15.67550156 -23.28420742 13.69900105 -22.87890625 11.72265625 C-22.54515616 10.05607299 -22.21161229 8.38944825 -21.87890625 6.72265625 C-29.78705336 5.88884812 -29.78705336 5.88884812 -36.75390625 9.09765625 C-40.60527701 13.01352365 -42.80026489 17.69542363 -44.87890625 22.72265625 C-45.30816406 23.75326172 -45.30816406 23.75326172 -45.74609375 24.8046875 C-52.20418877 42.21491274 -54.27980508 65.03741422 -47.87890625 82.72265625 C-45.36160629 87.84715974 -42.20338408 90.7765432 -36.87890625 92.72265625 C-26.5341361 94.12533695 -16.90583869 89.09599064 -8.25390625 83.89453125 C-5.87890625 82.72265625 -5.87890625 82.72265625 -1.87890625 82.72265625 C0.43359375 84.97265625 0.43359375 84.97265625 2.12109375 87.72265625 C1.68467473 92.21153759 -1.01446675 94.04395666 -4.30859375 96.7890625 C-19.30033504 108.06704417 -36.78882977 115.52504379 -55.87890625 113.72265625 C-66.68940164 112.19208866 -75.00585584 107.92053265 -81.69140625 99.16015625 C-87.1326648 90.72170327 -90.66622822 80.79448031 -90.87890625 70.72265625 C-90.91757813 69.44519531 -90.95625 68.16773438 -90.99609375 66.8515625 C-91.46395308 44.44008357 -86.15258261 24.84105549 -70.51953125 8.14453125 C-52.09123618 -8.7571595 -21.65279057 -14.72029629 0 0 Z " fill="#020202" transform="translate(1565.87890625,951.27734375)"/>
<path d="M0 0 C4.78041384 4.18286211 6.45348904 8.63879118 7.546875 14.86328125 C7.85578409 19.72859936 8.02315204 23.29206243 5.15234375 27.3828125 C-0.75915713 32.91020635 -8.50773043 38.63151349 -16.5703125 40.2734375 C-19 39.75 -19 39.75 -21.09765625 37.16015625 C-21.74605469 36.05542969 -22.39445312 34.95070313 -23.0625 33.8125 C-25.34361868 29.59978629 -25.34361868 29.59978629 -28.9609375 26.734375 C-33.57512343 26.76973275 -36.85191187 29.626661 -40 32.75 C-41.06867072 35.29115622 -41.06867072 35.29115622 -41.58984375 38.15234375 C-41.94163696 39.75057983 -41.94163696 39.75057983 -42.30053711 41.38110352 C-42.53135986 42.49283936 -42.76218262 43.6045752 -43 44.75 C-43.49874864 46.92476653 -43.99876124 49.09924354 -44.5 51.2734375 C-49.10125842 72.07329582 -52.28679274 92.45215562 -53 113.75 C-62.30945569 116.72110288 -71.34307679 116.89221767 -81.0625 116.8125 C-82.11888672 116.80798828 -83.17527344 116.80347656 -84.26367188 116.79882812 C-86.84250908 116.78715918 -89.42122294 116.77078885 -92 116.75 C-92.97711685 103.39606978 -91.44870035 91.03699995 -88.75 78 C-88.59965302 77.2726767 -88.44930603 76.54535339 -88.29440308 75.79598999 C-86.45303284 66.97927748 -84.43396947 58.20438514 -82.3414917 49.44415283 C-77.85189196 31.03322807 -77.85189196 31.03322807 -84 13.75 C-84.75926804 12.61716238 -85.52836826 11.49077168 -86.3125 10.375 C-88 7.75 -88 7.75 -88 3.75 C-72.60351864 -1.15589286 -56.98189302 -0.38313124 -41 -0.25 C-39.45382079 3.93599738 -38.67154434 7.67683493 -38.375 12.125 C-38.30023437 13.18460938 -38.22546875 14.24421875 -38.1484375 15.3359375 C-38.09945313 16.13257813 -38.05046875 16.92921875 -38 17.75 C-37.61070313 17.2653125 -37.22140625 16.780625 -36.8203125 16.28125 C-27.81054641 5.48613855 -14.97676044 -6.24031685 0 0 Z " fill="#020202" transform="translate(1915,945.25)"/>
<path d="M0 0 C4.35019374 9.60667784 3.39477702 18.77040053 1.5625 28.9375 C1.39709717 29.87899902 1.23169434 30.82049805 1.0612793 31.79052734 C-1.4891632 45.51305208 -5.10653451 59.02971061 -8.61676025 72.53227234 C-10.02865274 77.99139449 -11.14056145 82.97619452 -11.125 88.625 C-11.12757812 89.56601563 -11.13015625 90.50703125 -11.1328125 91.4765625 C-11.10547998 94.12677507 -11.10547998 94.12677507 -10 97 C-8.58208592 96.54554036 -7.16571954 96.08625056 -5.75 95.625 C-4.96109375 95.36976562 -4.1721875 95.11453125 -3.359375 94.8515625 C-1.00373091 94.06659478 -1.00373091 94.06659478 1.046875 92.8984375 C3 92 3 92 7 92 C9.03435531 95.72965139 10 97.66905042 10 102 C-1.56785271 112.39569488 -17.73992452 120.63129331 -33.390625 120.2421875 C-38.96660018 119.72465687 -42.58735653 117.73501166 -46.3125 113.6875 C-51.53792676 106.9710848 -51.69120009 100.25065427 -51 92 C-49.21530179 79.19909357 -45.72549945 66.65913374 -42.37475586 54.20092773 C-39.05764287 41.79943812 -36.13992631 28.08640198 -42 16 C-43.27021259 13.88297901 -44.58156123 11.83656429 -46.01171875 9.82421875 C-47 8 -47 8 -47 4 C-31.70806428 -0.69005245 -15.83436324 -0.27289768 0 0 Z " fill="#020202" transform="translate(1969,945)"/>
<path d="M0 0 C10.76894496 18.73853553 -2.58060614 51.01475779 -7.56103516 70.15625 C-10.01050339 79.69037162 -10.25768392 88.2080109 -10 98 C-4.39 95.69 1.22 93.38 7 91 C8.32 93.64 9.64 96.28 11 99 C5.85462504 109.29074992 -9.60381061 115.35351615 -20.1875 118.9375 C-27.85518668 120.95199896 -35.35017615 121.2775047 -42.34765625 117.19921875 C-46.84646256 113.93412764 -48.51070657 110.21252699 -50 105 C-51.89271221 90.38607782 -47.47912829 76.06221269 -44 62 C-43.78730469 61.13084961 -43.57460937 60.26169922 -43.35546875 59.36621094 C-42.05320517 54.05306414 -40.74228434 48.74139104 -39.3125 43.4609375 C-36.49305471 32.37895117 -37.59244008 23.11442194 -43 13 C-43.5465625 12.28328125 -44.093125 11.5665625 -44.65625 10.828125 C-46.39867666 8.45761431 -46.23932845 6.8719414 -46 4 C-32.18830491 -2.17891622 -14.73088465 -0.22906878 0 0 Z " fill="#020202" transform="translate(2206,945)"/>
<path d="M0 0 C4.18617372 2.59272695 6.80219779 5.85785179 8.4375 10.5 C9.41255926 16.91985923 9.17636788 23.06971572 5.83203125 28.75390625 C1.2288981 34.51749314 -5.83113657 38.92456391 -13.1640625 39.81640625 C-19.48822977 40.08644645 -24.38885512 39.2670984 -29.5625 35.5 C-33.9266294 31.02102509 -35.84660919 26.42238544 -36 20.1875 C-35.86032283 14.40641724 -34.46364932 10.7598757 -30.5625 6.5 C-21.96324525 -1.25589527 -11.37840934 -4.94808222 0 0 Z " fill="#030303" transform="translate(1971.5625,881.5)"/>
<path d="M0 0 C1.27746094 -0.02835938 2.55492188 -0.05671875 3.87109375 -0.0859375 C9.21289475 0.58108104 12.22247731 2.92330875 15.8125 6.8125 C19.48880366 12.19565893 20.40326252 16.93993302 19.5625 23.375 C17.427724 30.68458111 12.13336885 35.78667668 5.6171875 39.4765625 C-0.19239149 41.99326271 -6.59615662 42.56159298 -12.67578125 40.68359375 C-17.52699394 38.50009124 -20.39734663 35.70491541 -23.4375 31.375 C-25.48169111 25.24242667 -25.5647576 17.91132961 -22.9375 12 C-15.79394726 4.49926962 -10.74182821 0.10817551 0 0 Z " fill="#020202" transform="translate(2198.4375,879.625)"/>
<path d="M0 0 C2.96858157 2.20740681 3.82865791 3.48597373 5 7 C5.84349398 18.28346042 5.13412558 28.30114317 -2.25 37.375 C-6.8509354 42.19314695 -12.57208506 46.08899826 -19 48 C-20.66644671 48.02707668 -22.33361058 48.03039848 -24 48 C-24.89600364 33.68883079 -22.33057491 15.343861 -12.875 3.9375 C-9.13586382 -0.17942456 -5.50863233 -0.80720553 0 0 Z " fill="#FAFAFA" transform="translate(1431,958)"/>
<path d="M0 0 C0.33 0 0.66 0 1 0 C0.48144388 7.54807562 -0.62573231 14.76001889 -2.28515625 22.13671875 C-2.50570175 23.14217239 -2.72624725 24.14762604 -2.95347595 25.18354797 C-3.65018425 28.35296058 -4.35616643 31.52022017 -5.0625 34.6875 C-5.54033183 36.85337931 -6.017551 39.01939388 -6.49414062 41.18554688 C-7.65569027 46.45861392 -8.82483365 51.72995184 -10 57 C-10.99 56.34 -11.98 55.68 -13 55 C-11.76025936 47.59015868 -10.15049481 40.37439433 -8.1875 33.125 C-5.26056811 22.127684 -2.58469539 11.08216739 0 0 Z " fill="#FFE7DF" transform="translate(2575,322)"/>
<path d="M0 0 C0.33 0 0.66 0 1 0 C0.48462048 7.13393752 -0.44005901 14.01812817 -2 21 C-4 18 -4 18 -3.828125 15.546875 C-3.63734375 14.62390625 -3.4465625 13.7009375 -3.25 12.75 C-3.05148438 11.77933594 -2.85296875 10.80867188 -2.6484375 9.80859375 C-1.8825866 6.49144438 -1.01122647 3.25037079 0 0 Z " fill="#FFD3C5" transform="translate(2575,322)"/>
</svg>
